<?xml version="1.0" encoding="utf-8"?>
<!-- Generator: Adobe Illustrator 16.2.0, SVG Export Plug-In . SVG Version: 6.00 Build 0)  -->
<!DOCTYPE svg PUBLIC "-//W3C//DTD SVG 1.1//EN" "http://www.w3.org/Graphics/SVG/1.1/DTD/svg11.dtd">
<svg version="1.1" xmlns="http://www.w3.org/2000/svg" xmlns:xlink="http://www.w3.org/1999/xlink" x="0px" y="0px" width="640px"
	 height="640px" viewBox="0 0 640 640" enable-background="new 0 0 640 640" xml:space="preserve">
<symbol  id="minus" viewBox="-86 -30 171 60">
	<path fill="#EFC84A" d="M85,9.893C85,20.825,76.496,30,65.56,30H-66.437C-77.373,30-86,20.825-86,9.893V-1H85V9.893z"/>
	<path fill="#D9B543" d="M-86-1v-9.568C-86-21.505-77.373-30-66.437-30H65.56C76.496-30,85-21.505,85-10.568V-1H-86z"/>
	<polygon display="none" fill="none" points="-86,30 85,30 85,-30 -86,-30 	"/>
</symbol>
<symbol  id="plus" viewBox="-71 -70.935 142 141.869">
	<path fill="#F76451" d="M70.923,0l0.013,8.721c0.013,9.002-7.373,16.609-16.375,16.623l-30.409,0.099l0.043,29.603
		c0.013,9-6.849,15.838-15.849,15.852L0,70.923V0H70.923z"/>
	<path fill="#E05B49" d="M0,70.923l-8.53,0.012c-9.002,0.014-17.017-6.787-17.03-15.787l0.011-29.576l-28.924,0.041
		c-9,0.014-16.438-7.68-16.45-16.682l0-8.93H0V70.923z"/>
	<path fill="#CC5343" d="M-70.923,0l-0.012-7.945c-0.013-9,7.416-16.184,16.416-16.198l28.951,0.013l-0.044-29.758
		c-0.013-9.002,7.871-17.023,16.874-17.037L0-70.924V0H-70.923z"/>
	<path fill="#D45644" d="M0,0v-70.924l8.137-0.011c9-0.014,15.775,7.998,15.788,17.002l0.099,29.783l30.437-0.045
		c9.003-0.014,16.424,7.041,16.438,16.039L70.923,0H0z"/>
	<polygon display="none" fill="none" points="-71,70 71,70 71,-70 -71,-70 	"/>
</symbol>
<pattern  x="1468" y="6485" width="72" height="72" patternUnits="userSpaceOnUse" id="Grid_1_pica_Lines" viewBox="72.25 -144.25 72 72" overflow="visible">
	<g>
		<polygon fill="none" points="72.25,-144.25 144.25,-144.25 144.25,-72.25 72.25,-72.25 		"/>
		<g>
			<line fill="none" stroke="#231F20" stroke-width="0.3" x1="78.25" y1="-72.5" x2="78.25" y2="0"/>
			<line fill="none" stroke="#231F20" stroke-width="0.3" x1="102.25" y1="-72.5" x2="102.25" y2="0"/>
			<line fill="none" stroke="#231F20" stroke-width="0.3" x1="126.25" y1="-72.5" x2="126.25" y2="0"/>
			<line fill="none" stroke="#231F20" stroke-width="0.3" x1="90.25" y1="-72.5" x2="90.25" y2="0"/>
			<line fill="none" stroke="#231F20" stroke-width="0.3" x1="114.25" y1="-72.5" x2="114.25" y2="0"/>
			<line fill="none" stroke="#231F20" stroke-width="0.3" x1="138.25" y1="-72.5" x2="138.25" y2="0"/>
		</g>
		<g>
			<line fill="none" stroke="#231F20" stroke-width="0.3" x1="144" y1="-78.25" x2="216.5" y2="-78.25"/>
			<line fill="none" stroke="#231F20" stroke-width="0.3" x1="144" y1="-102.25" x2="216.5" y2="-102.25"/>
			<line fill="none" stroke="#231F20" stroke-width="0.3" x1="144" y1="-126.25" x2="216.5" y2="-126.25"/>
			<line fill="none" stroke="#231F20" stroke-width="0.3" x1="144" y1="-90.25" x2="216.5" y2="-90.25"/>
			<line fill="none" stroke="#231F20" stroke-width="0.3" x1="144" y1="-114.25" x2="216.5" y2="-114.25"/>
			<line fill="none" stroke="#231F20" stroke-width="0.3" x1="144" y1="-138.25" x2="216.5" y2="-138.25"/>
		</g>
		<g>
			<line fill="none" stroke="#231F20" stroke-width="0.3" x1="78.25" y1="-144.5" x2="78.25" y2="-72"/>
			<line fill="none" stroke="#231F20" stroke-width="0.3" x1="102.25" y1="-144.5" x2="102.25" y2="-72"/>
			<line fill="none" stroke="#231F20" stroke-width="0.3" x1="126.25" y1="-144.5" x2="126.25" y2="-72"/>
			<line fill="none" stroke="#231F20" stroke-width="0.3" x1="72" y1="-78.25" x2="144.5" y2="-78.25"/>
			<line fill="none" stroke="#231F20" stroke-width="0.3" x1="72" y1="-102.25" x2="144.5" y2="-102.25"/>
			<line fill="none" stroke="#231F20" stroke-width="0.3" x1="72" y1="-126.25" x2="144.5" y2="-126.25"/>
			<line fill="none" stroke="#231F20" stroke-width="0.3" x1="72" y1="-90.25" x2="144.5" y2="-90.25"/>
			<line fill="none" stroke="#231F20" stroke-width="0.3" x1="72" y1="-114.25" x2="144.5" y2="-114.25"/>
			<line fill="none" stroke="#231F20" stroke-width="0.3" x1="72" y1="-138.25" x2="144.5" y2="-138.25"/>
			<line fill="none" stroke="#231F20" stroke-width="0.3" x1="90.25" y1="-144.5" x2="90.25" y2="-72"/>
			<line fill="none" stroke="#231F20" stroke-width="0.3" x1="114.25" y1="-144.5" x2="114.25" y2="-72"/>
			<line fill="none" stroke="#231F20" stroke-width="0.3" x1="138.25" y1="-144.5" x2="138.25" y2="-72"/>
		</g>
		<g>
			<line fill="none" stroke="#231F20" stroke-width="0.3" x1="0" y1="-78.25" x2="72.5" y2="-78.25"/>
			<line fill="none" stroke="#231F20" stroke-width="0.3" x1="0" y1="-102.25" x2="72.5" y2="-102.25"/>
			<line fill="none" stroke="#231F20" stroke-width="0.3" x1="0" y1="-126.25" x2="72.5" y2="-126.25"/>
			<line fill="none" stroke="#231F20" stroke-width="0.3" x1="0" y1="-90.25" x2="72.5" y2="-90.25"/>
			<line fill="none" stroke="#231F20" stroke-width="0.3" x1="0" y1="-114.25" x2="72.5" y2="-114.25"/>
			<line fill="none" stroke="#231F20" stroke-width="0.3" x1="0" y1="-138.25" x2="72.5" y2="-138.25"/>
		</g>
		<g>
			<line fill="none" stroke="#231F20" stroke-width="0.3" x1="78.25" y1="-216.5" x2="78.25" y2="-144"/>
			<line fill="none" stroke="#231F20" stroke-width="0.3" x1="102.25" y1="-216.5" x2="102.25" y2="-144"/>
			<line fill="none" stroke="#231F20" stroke-width="0.3" x1="126.25" y1="-216.5" x2="126.25" y2="-144"/>
			<line fill="none" stroke="#231F20" stroke-width="0.3" x1="90.25" y1="-216.5" x2="90.25" y2="-144"/>
			<line fill="none" stroke="#231F20" stroke-width="0.3" x1="114.25" y1="-216.5" x2="114.25" y2="-144"/>
			<line fill="none" stroke="#231F20" stroke-width="0.3" x1="138.25" y1="-216.5" x2="138.25" y2="-144"/>
		</g>
	</g>
</pattern>
<pattern  x="1468" y="6485" width="30" height="30" patternUnits="userSpaceOnUse" id="New_Pattern_Swatch_2" viewBox="0 -30 30 30" overflow="visible">
	<g>
		<polygon fill="none" points="0,0 30,0 30,-30 0,-30 		"/>
		<g>
			<polygon fill="#B0B3B3" points="30,-30 22.929,-30 0,-7.071 0,0 7.071,0 30,-22.929 			"/>
			<polygon fill="#B0B3B3" points="30,-7.071 22.929,0 30,0 			"/>
			<polygon fill="#B0B3B3" points="0,-30 0,-22.929 7.071,-30 			"/>
		</g>
	</g>
</pattern>
<g id="Layer_166">
</g>
<g id="vespa">
</g>
<g id="circus_1_">
</g>
<g id="lcdtv">
</g>
<g id="retrotv_1_">
</g>
<g id="submarine">
</g>
<g id="circus">
</g>
<g id="cabin">
</g>
<g id="cake">
</g>
<g id="beer">
</g>
<g id="UFO">
</g>
<g id="meteor">
</g>
<g id="GPS">
</g>
<g id="wallet">
</g>
<g id="safe">
</g>
<g id="pencil">
</g>
<g id="satelite">
	<g>
		<path id="bg_25_" fill="#334D5C" d="M640,319.998C640,496.723,496.731,640,320,640C143.267,640,0,496.723,0,319.998
			C0,143.273,143.267,0,320,0C496.731,0,640,143.273,640,319.998z"/>
		<path fill="#334D5C" d="M640,319.998C640,496.723,496.731,640,320,640C143.267,640,0,496.723,0,319.998C0,143.273,143.267,0,320,0
			C496.731,0,640,143.273,640,319.998z"/>
		<path fill="#939FA7" d="M258.354,89.22c9.026-1.841,23.708-3.163,23.708-3.163s-14.887-1.151-23.86-2.93
			c1.094-5.08,4.231-13.029,4.231-13.029s-7.651,3.02-12.737,4.157c-1.711-9.084-2.817-23.787-2.817-23.787
			s-1.03,15.085-2.775,23.885c-5.059-1.053-13.184-4.254-13.184-4.254s2.902,7.369,4.094,12.452
			c-9.185,1.803-23.718,3.097-23.718,3.097s14.67,1.405,23.764,3.298c-1.147,5.085-4.14,12.663-4.14,12.663s7.839-3.09,12.922-4.199
			c1.679,8.892,2.631,23.827,2.631,23.827s1.277-14.996,3.135-23.805c5.09,1.128,12.825,4.176,12.825,4.176
			S259.553,94.304,258.354,89.22z"/>
		<path fill="#939FA7" d="M440.081,516.698c3.86-0.785,10.139-1.354,10.139-1.354s-6.365-0.491-10.198-1.25
			c0.463-2.171,1.804-5.572,1.804-5.572s-3.271,1.292-5.444,1.779c-0.735-3.885-1.204-10.176-1.204-10.176s-0.442,6.45-1.187,10.217
			c-2.166-0.451-5.64-1.82-5.64-1.82s1.241,3.152,1.75,5.326c-3.926,0.771-10.142,1.321-10.142,1.321s6.272,0.603,10.161,1.415
			c-0.493,2.173-1.77,5.411-1.77,5.411s3.352-1.322,5.525-1.794c0.718,3.8,1.123,10.187,1.123,10.187s0.547-6.409,1.345-10.178
			c2.175,0.483,5.481,1.786,5.481,1.786S440.596,518.872,440.081,516.698z"/>
		<polygon fill="#FFFFFF" points="454.897,270.575 248.623,187.366 153.748,366.923 399.014,465.635 		"/>
		<path fill="#A6CB95" d="M399.014,465.635c-10.686,26.555-74.253,25.985-141.982-1.27
			c-67.737-27.262-113.972-70.883-103.284-97.442c10.686-26.552,74.248-25.975,141.98,1.28
			C363.462,395.467,409.699,439.086,399.014,465.635z"/>
		<path fill="#FFFFFF" d="M454.131,272.824c-9.004,22.36-62.534,21.885-119.58-1.079c-57.043-22.953-95.984-59.695-86.982-82.057
			c9.001-22.365,62.537-21.88,119.575,1.076C424.189,213.725,463.13,250.455,454.131,272.824z"/>
		<path fill="#5A965A" d="M290.159,382.038c-48.242-19.417-93.521-19.827-101.136-0.916l-15.337,38.104l174.611,70.281
			l14.752-36.643c0.248-0.465,0.485-0.935,0.683-1.425C371.345,432.524,338.411,401.455,290.159,382.038z"/>
		<path fill="#A6CB95" d="M347.856,490.898c-7.62,18.922-52.896,18.512-101.143-0.901c-48.247-19.42-81.187-50.495-73.574-69.417
			c7.615-18.91,52.896-18.497,101.143,0.916C322.532,440.918,355.464,471.987,347.856,490.898z"/>
		<path fill="#FFFFFF" d="M237.148,314.337c-7.98,19.814-30.505,29.41-50.317,21.442l-88.872-35.771
			c-19.814-7.974-29.409-30.501-21.438-50.312l31.231-77.605c7.981-19.814,30.505-29.411,50.317-21.441l88.875,35.778
			c19.812,7.968,29.412,30.497,21.436,50.308L237.148,314.337z"/>
		<path fill="#41AAD8" d="M230.437,306.96c-7.148,17.758-27.341,26.358-45.095,19.208l-79.656-32.056
			c-17.753-7.149-26.354-27.336-19.208-45.086l27.993-69.554c7.15-17.757,27.333-26.355,45.09-19.209l79.653,32.057
			c17.756,7.142,26.355,27.333,19.212,45.086L230.437,306.96z"/>
		<path fill="#FFFFFF" d="M535.515,434.426c-7.974,19.813-30.498,29.41-50.313,21.435l-88.871-35.763
			c-19.813-7.98-29.415-30.504-21.436-50.32l31.23-77.601c7.974-19.811,30.505-29.413,50.317-21.438l88.872,35.772
			c19.812,7.972,29.414,30.497,21.433,50.307L535.515,434.426z"/>
		<path fill="#41AAD8" d="M528.804,427.042c-7.151,17.758-27.336,26.359-45.095,19.209l-79.648-32.053
			c-17.756-7.142-26.357-27.333-19.216-45.09l28-69.553c7.141-17.753,27.329-26.354,45.083-19.209l79.653,32.056
			c17.762,7.146,26.357,27.338,19.212,45.09L528.804,427.042z"/>
		<path fill="#FFFFFF" d="M376.831,110.764c2.634-6.549,10.078-9.718,16.626-7.083c6.538,2.63,9.714,10.078,7.078,16.621
			c-2.629,6.546-10.079,9.715-16.617,7.079C377.366,124.75,374.199,117.307,376.831,110.764z"/>
		<polygon fill="#FFFFFF" points="339.902,260.49 323.447,253.868 386.519,117.857 388.633,118.705 		"/>
		<circle fill="#334D5C" cx="331.65" cy="275.831" r="60.979"/>
		<circle fill="#41AAD8" cx="331.652" cy="275.831" r="47.804"/>
		<path fill="#ACD9EA" d="M306.797,316.607c7.249,4.429,15.735,7.026,24.854,7.026c2.574,0,5.079-0.26,7.541-0.651v-94.305
			c-2.462-0.39-4.967-0.65-7.541-0.65c-9.119,0-17.604,2.598-24.854,7.026V316.607z"/>
		<path fill="#ACD9EA" d="M343.955,321.979c3.333-0.89,6.526-2.106,9.529-3.655v-84.984c-3.003-1.549-6.197-2.766-9.529-3.655
			V321.979z"/>
		<path fill="#ACD9EA" d="M122.19,300.752l63.152,25.416c1.174,0.474,2.356,0.868,3.545,1.203V172.066l-29.326-11.803
			c-13.249-5.332-27.844-1.89-37.371,7.57V300.752z"/>
		<path fill="#ACD9EA" d="M194.126,328.395c5.218,0.632,10.423,0.071,15.261-1.571V180.316l-15.261-6.14V328.395z"/>
		
			<rect x="167.742" y="165.577" transform="matrix(0.9276 0.3736 -0.3736 0.9276 102.9355 -46.7533)" fill="#FFFFFF" width="8.699" height="153.238"/>
		
			<rect x="170.057" y="160.709" transform="matrix(0.3735 -0.9276 0.9276 0.3735 -116.2654 314.113)" fill="#FFFFFF" width="8.702" height="164.84"/>
		<path fill="#ACD9EA" d="M497.437,296.245l-39.509-15.9c-7.757-3.123-15.982-3.238-23.377-0.897v147.02l49.158,19.783
			c4.504,1.812,9.165,2.605,13.728,2.498V296.245z"/>
		<path fill="#ACD9EA" d="M504.421,447.859c6.194-1.433,11.929-4.541,16.514-9.041V305.702l-16.514-6.646V447.859z"/>
		
			<rect x="468.427" y="286.592" transform="matrix(0.9278 0.3732 -0.3732 0.9278 169.697 -150.193)" fill="#FFFFFF" width="8.708" height="153.24"/>
		
			<rect x="469.218" y="281.108" transform="matrix(0.3736 -0.9276 0.9276 0.3736 -40.5531 667.0088)" fill="#FFFFFF" width="8.699" height="164.843"/>
	</g>
</g>
<g id="coins">
</g>
<g id="guitar2">
</g>
<g id="tent">
</g>
<g id="boombox">
</g>
<g id="headphonehq">
</g>
<g id="clock">
</g>
<g id="gamepad">
</g>
</svg>
