<?xml version="1.0" encoding="utf-8"?>
<!-- Generator: Adobe Illustrator 16.2.0, SVG Export Plug-In . SVG Version: 6.00 Build 0)  -->
<!DOCTYPE svg PUBLIC "-//W3C//DTD SVG 1.1//EN" "http://www.w3.org/Graphics/SVG/1.1/DTD/svg11.dtd">
<svg version="1.1" xmlns="http://www.w3.org/2000/svg" xmlns:xlink="http://www.w3.org/1999/xlink" x="0px" y="0px" width="640px"
	 height="640px" viewBox="0 0 640 640" enable-background="new 0 0 640 640" xml:space="preserve">
<symbol  id="minus" viewBox="-86 -30 171 60">
	<path fill="#EFC84A" d="M85,9.893C85,20.825,76.496,30,65.56,30H-66.437C-77.373,30-86,20.825-86,9.893V-1H85V9.893z"/>
	<path fill="#D9B543" d="M-86-1v-9.568C-86-21.505-77.373-30-66.437-30H65.56C76.496-30,85-21.505,85-10.568V-1H-86z"/>
	<polygon display="none" fill="none" points="-86,30 85,30 85,-30 -86,-30 	"/>
</symbol>
<symbol  id="plus" viewBox="-71 -70.935 142 141.869">
	<path fill="#F76451" d="M70.923,0l0.013,8.721c0.013,9.002-7.373,16.609-16.375,16.623l-30.409,0.099l0.043,29.603
		c0.013,9-6.849,15.838-15.849,15.852L0,70.923V0H70.923z"/>
	<path fill="#E05B49" d="M0,70.923l-8.53,0.012c-9.002,0.014-17.017-6.787-17.03-15.787l0.011-29.576l-28.924,0.041
		c-9,0.014-16.438-7.68-16.45-16.682l0-8.93H0V70.923z"/>
	<path fill="#CC5343" d="M-70.923,0l-0.012-7.945c-0.013-9,7.416-16.184,16.416-16.198l28.951,0.013l-0.044-29.758
		c-0.013-9.002,7.871-17.023,16.874-17.037L0-70.924V0H-70.923z"/>
	<path fill="#D45644" d="M0,0v-70.924l8.137-0.011c9-0.014,15.775,7.998,15.788,17.002l0.099,29.783l30.437-0.045
		c9.003-0.014,16.424,7.041,16.438,16.039L70.923,0H0z"/>
	<polygon display="none" fill="none" points="-71,70 71,70 71,-70 -71,-70 	"/>
</symbol>
<pattern  x="2196" y="6485" width="72" height="72" patternUnits="userSpaceOnUse" id="Grid_1_pica_Lines" viewBox="72.25 -144.25 72 72" overflow="visible">
	<g>
		<polygon fill="none" points="72.25,-144.25 144.25,-144.25 144.25,-72.25 72.25,-72.25 		"/>
		<g>
			<line fill="none" stroke="#231F20" stroke-width="0.3" x1="78.25" y1="-72.5" x2="78.25" y2="0"/>
			<line fill="none" stroke="#231F20" stroke-width="0.3" x1="102.25" y1="-72.5" x2="102.25" y2="0"/>
			<line fill="none" stroke="#231F20" stroke-width="0.3" x1="126.25" y1="-72.5" x2="126.25" y2="0"/>
			<line fill="none" stroke="#231F20" stroke-width="0.3" x1="90.25" y1="-72.5" x2="90.25" y2="0"/>
			<line fill="none" stroke="#231F20" stroke-width="0.3" x1="114.25" y1="-72.5" x2="114.25" y2="0"/>
			<line fill="none" stroke="#231F20" stroke-width="0.3" x1="138.25" y1="-72.5" x2="138.25" y2="0"/>
		</g>
		<g>
			<line fill="none" stroke="#231F20" stroke-width="0.3" x1="144" y1="-78.25" x2="216.5" y2="-78.25"/>
			<line fill="none" stroke="#231F20" stroke-width="0.3" x1="144" y1="-102.25" x2="216.5" y2="-102.25"/>
			<line fill="none" stroke="#231F20" stroke-width="0.3" x1="144" y1="-126.25" x2="216.5" y2="-126.25"/>
			<line fill="none" stroke="#231F20" stroke-width="0.3" x1="144" y1="-90.25" x2="216.5" y2="-90.25"/>
			<line fill="none" stroke="#231F20" stroke-width="0.3" x1="144" y1="-114.25" x2="216.5" y2="-114.25"/>
			<line fill="none" stroke="#231F20" stroke-width="0.3" x1="144" y1="-138.25" x2="216.5" y2="-138.25"/>
		</g>
		<g>
			<line fill="none" stroke="#231F20" stroke-width="0.3" x1="78.25" y1="-144.5" x2="78.25" y2="-72"/>
			<line fill="none" stroke="#231F20" stroke-width="0.3" x1="102.25" y1="-144.5" x2="102.25" y2="-72"/>
			<line fill="none" stroke="#231F20" stroke-width="0.3" x1="126.25" y1="-144.5" x2="126.25" y2="-72"/>
			<line fill="none" stroke="#231F20" stroke-width="0.3" x1="72" y1="-78.25" x2="144.5" y2="-78.25"/>
			<line fill="none" stroke="#231F20" stroke-width="0.3" x1="72" y1="-102.25" x2="144.5" y2="-102.25"/>
			<line fill="none" stroke="#231F20" stroke-width="0.3" x1="72" y1="-126.25" x2="144.5" y2="-126.25"/>
			<line fill="none" stroke="#231F20" stroke-width="0.3" x1="72" y1="-90.25" x2="144.5" y2="-90.25"/>
			<line fill="none" stroke="#231F20" stroke-width="0.3" x1="72" y1="-114.25" x2="144.5" y2="-114.25"/>
			<line fill="none" stroke="#231F20" stroke-width="0.3" x1="72" y1="-138.25" x2="144.5" y2="-138.25"/>
			<line fill="none" stroke="#231F20" stroke-width="0.3" x1="90.25" y1="-144.5" x2="90.25" y2="-72"/>
			<line fill="none" stroke="#231F20" stroke-width="0.3" x1="114.25" y1="-144.5" x2="114.25" y2="-72"/>
			<line fill="none" stroke="#231F20" stroke-width="0.3" x1="138.25" y1="-144.5" x2="138.25" y2="-72"/>
		</g>
		<g>
			<line fill="none" stroke="#231F20" stroke-width="0.3" x1="0" y1="-78.25" x2="72.5" y2="-78.25"/>
			<line fill="none" stroke="#231F20" stroke-width="0.3" x1="0" y1="-102.25" x2="72.5" y2="-102.25"/>
			<line fill="none" stroke="#231F20" stroke-width="0.3" x1="0" y1="-126.25" x2="72.5" y2="-126.25"/>
			<line fill="none" stroke="#231F20" stroke-width="0.3" x1="0" y1="-90.25" x2="72.5" y2="-90.25"/>
			<line fill="none" stroke="#231F20" stroke-width="0.3" x1="0" y1="-114.25" x2="72.5" y2="-114.25"/>
			<line fill="none" stroke="#231F20" stroke-width="0.3" x1="0" y1="-138.25" x2="72.5" y2="-138.25"/>
		</g>
		<g>
			<line fill="none" stroke="#231F20" stroke-width="0.3" x1="78.25" y1="-216.5" x2="78.25" y2="-144"/>
			<line fill="none" stroke="#231F20" stroke-width="0.3" x1="102.25" y1="-216.5" x2="102.25" y2="-144"/>
			<line fill="none" stroke="#231F20" stroke-width="0.3" x1="126.25" y1="-216.5" x2="126.25" y2="-144"/>
			<line fill="none" stroke="#231F20" stroke-width="0.3" x1="90.25" y1="-216.5" x2="90.25" y2="-144"/>
			<line fill="none" stroke="#231F20" stroke-width="0.3" x1="114.25" y1="-216.5" x2="114.25" y2="-144"/>
			<line fill="none" stroke="#231F20" stroke-width="0.3" x1="138.25" y1="-216.5" x2="138.25" y2="-144"/>
		</g>
	</g>
</pattern>
<pattern  x="2196" y="6485" width="30" height="30" patternUnits="userSpaceOnUse" id="New_Pattern_Swatch_2" viewBox="0 -30 30 30" overflow="visible">
	<g>
		<polygon fill="none" points="0,0 30,0 30,-30 0,-30 		"/>
		<g>
			<polygon fill="#B0B3B3" points="30,-30 22.929,-30 0,-7.071 0,0 7.071,0 30,-22.929 			"/>
			<polygon fill="#B0B3B3" points="30,-7.071 22.929,0 30,0 			"/>
			<polygon fill="#B0B3B3" points="0,-30 0,-22.929 7.071,-30 			"/>
		</g>
	</g>
</pattern>
<g id="Layer_166">
</g>
<g id="vespa">
</g>
<g id="circus_1_">
</g>
<g id="lcdtv">
</g>
<g id="retrotv_1_">
</g>
<g id="submarine">
</g>
<g id="circus">
</g>
<g id="cabin">
</g>
<g id="cake">
</g>
<g id="beer">
	<g>
		<path id="bg_3_" fill="#E27C3E" d="M640,320c0,176.732-143.264,320-320,320C143.267,640,0,496.732,0,320C0,143.27,143.267,0,320,0
			C496.736,0,640,143.27,640,320z"/>
		<path fill="#FFFFFF" d="M517.73,238c-18.725,0-45.73,0-75.73,0v-40.153c0-0.324,0.672-0.847,0.662-0.847H177.208
			c-0.01,0,0.792,0.523,0.792,0.847v307.784C178,526.836,194.347,544,215.548,544H404.32c21.201,0,37.68-17.164,37.68-38.369
			v-38.393c35-13.382,59.17-43.144,91.13-104.494C582.082,268.783,554.305,238,517.73,238z M500.329,361.085
			C479.992,400.116,465,418.135,442,426.152V284c20,0,36.931,0,48.897,0C513.619,284,530.741,302.704,500.329,361.085z"/>
		<path fill="#EFC84A" d="M199.269,230.224c-0.005,0.269-0.034,0.529-0.034,0.798v256.613c0,17.679,14.331,32.011,32.012,32.011
			h157.378c17.681,0,32.014-14.332,32.014-32.011V231.022c0-0.269-0.034-0.529-0.041-0.798H199.269z"/>
		<path fill="#EFD7AC" d="M212.596,404.515c-2.356,0-4.263-1.909-4.263-4.264V290.358c0-2.353,1.907-4.262,4.263-4.262
			s4.263,1.909,4.263,4.262v109.893C216.859,402.606,214.952,404.515,212.596,404.515z"/>
		<path fill="#F2D379" d="M351.771,440.983c0-4.709-3.818-8.529-8.528-8.529c-4.707,0-8.528,3.819-8.528,8.529
			c0,4.708,3.822,8.527,8.528,8.527C347.953,449.51,351.771,445.692,351.771,440.983z"/>
		<path fill="#F2D379" d="M314.467,391.949c0-4.708-3.821-8.526-8.533-8.526c-4.707,0-8.525,3.818-8.525,8.526
			c0,4.711,3.818,8.529,8.525,8.529C310.646,400.478,314.467,396.66,314.467,391.949z"/>
		<path fill="#F2D379" d="M287.816,373.83c0-4.708-3.818-8.527-8.525-8.527c-4.712,0-8.533,3.819-8.533,8.527
			c0,4.709,3.82,8.527,8.533,8.527C283.998,382.357,287.816,378.54,287.816,373.83z"/>
		<path fill="#F2D379" d="M309.137,328.528c0-4.708-3.821-8.528-8.533-8.528c-4.708,0-8.526,3.819-8.526,8.528
			c0,4.709,3.818,8.527,8.526,8.527C305.316,337.055,309.137,333.237,309.137,328.528z"/>
		<path fill="#EFBB5E" d="M280.355,352.511c0-4.708-3.821-8.526-8.528-8.526c-4.709,0-8.528,3.819-8.528,8.526
			c0,4.711,3.819,8.529,8.528,8.529C276.534,361.04,280.355,357.222,280.355,352.511z"/>
		<circle fill="#F2D379" cx="324.057" cy="275.231" r="8.527"/>
		<circle fill="#EFBB5E" cx="277.157" cy="276.83" r="8.528"/>
		<circle fill="#EAAA54" cx="329.387" cy="238.458" r="8.527"/>
		<circle fill="#F2D379" cx="369.36" cy="277.364" r="8.527"/>
		<path fill="#F2D379" d="M352.306,315.205c0-4.711-3.818-8.529-8.53-8.529c-4.708,0-8.528,3.818-8.528,8.529
			c0,4.708,3.821,8.527,8.528,8.527C348.487,323.732,352.306,319.913,352.306,315.205z"/>
		<circle fill="#F2D379" cx="329.387" cy="347.181" r="8.527"/>
		<circle fill="#F2D379" cx="360.832" cy="339.72" r="8.527"/>
		<path fill="#F2D379" d="M346.442,374.896c0-4.709-3.822-8.529-8.528-8.529c-4.71,0-8.528,3.82-8.528,8.529
			c0,4.708,3.818,8.526,8.528,8.526C342.62,383.422,346.442,379.604,346.442,374.896z"/>
		<path fill="#F2D379" d="M321.925,423.396c0-4.71-3.818-8.529-8.528-8.529c-4.706,0-8.527,3.819-8.527,8.529
			c0,4.709,3.821,8.526,8.527,8.526C318.106,431.922,321.925,428.105,321.925,423.396z"/>
		<path fill="#FFFFFF" d="M425.855,170.594c-1.131,0-2.244,0.077-3.34,0.211c-6.659-6.716-15.665-11.092-25.684-11.818
			c-5.342-11.593-17.057-19.643-30.659-19.643c-3.818,0-7.486,0.644-10.91,1.813c-10.128-13.413-26.203-22.084-44.303-22.084
			c-2.303,0-4.569,0.157-6.798,0.429c-5.946-9.618-16.584-16.029-28.723-16.029c-17.489,0-31.873,13.309-33.573,30.357
			c-0.335-0.01-0.671-0.025-1.009-0.025c-12.306,0-23.071,6.59-28.967,16.433c-11.566,5.313-20.728,14.943-25.427,26.834
			c-0.504-0.029-1.004-0.076-1.516-0.076c-14.224,0-25.757,11.53-25.757,25.759c0,14.225,11.533,25.756,25.757,25.756
			c2.383,0,4.679-0.35,6.869-0.955c5.633,15.481,20.477,26.538,37.906,26.538c4.37,0,8.749-0.704,12.689-1.989
			c1.686,2.397,3.588,4.407,6.588,5.893v135.033c0,9.542,7.96,17.274,17.499,17.274c9.542,0,17.501-7.733,17.501-17.274v-109.82
			c1,0.125,2.298,0.191,3.509,0.191c0.527,0,1.491-0.016,1.491-0.04v70.271c0,4.905,3.597,8.882,8.499,8.882
			c4.905,0,8.501-3.977,8.501-8.882v-76.325c8-5.468,13.257-14.149,14.292-24.128c5.068,1.843,10.158,2.851,15.863,2.851
			c12.437,0,24.845-4.783,31.845-12.603v103.795c0,5.689,5.31,10.302,10.999,10.302c5.691,0,11.001-4.613,11.001-10.302V239.273
			c1,0.16,2.662,0.25,4.168,0.25c12.488,0,23.505-5.679,30.903-14.591c0.31,0.01,0.546,0.023,0.856,0.023
			c15.015,0,27.15-12.167,27.15-27.18C453.077,182.761,440.871,170.594,425.855,170.594z"/>
	</g>
</g>
<g id="UFO">
</g>
<g id="meteor">
</g>
<g id="GPS">
</g>
<g id="wallet">
</g>
<g id="safe">
</g>
<g id="pencil">
</g>
<g id="satelite">
</g>
<g id="coins">
</g>
<g id="guitar2">
</g>
<g id="tent">
</g>
<g id="boombox">
</g>
<g id="headphonehq">
</g>
<g id="clock">
</g>
<g id="gamepad">
</g>
</svg>
