<?xml version="1.0" encoding="utf-8"?>
<!-- Generator: Adobe Illustrator 16.2.0, SVG Export Plug-In . SVG Version: 6.00 Build 0)  -->
<!DOCTYPE svg PUBLIC "-//W3C//DTD SVG 1.1//EN" "http://www.w3.org/Graphics/SVG/1.1/DTD/svg11.dtd">
<svg version="1.1" xmlns="http://www.w3.org/2000/svg" xmlns:xlink="http://www.w3.org/1999/xlink" x="0px" y="0px" width="640px"
	 height="640px" viewBox="0 0 640 640" enable-background="new 0 0 640 640" xml:space="preserve">
<symbol  id="minus" viewBox="-86 -30 171 60">
	<path fill="#EFC84A" d="M85,9.893C85,20.825,76.496,30,65.56,30H-66.437C-77.373,30-86,20.825-86,9.893V-1H85V9.893z"/>
	<path fill="#D9B543" d="M-86-1v-9.568C-86-21.505-77.373-30-66.437-30H65.56C76.496-30,85-21.505,85-10.568V-1H-86z"/>
	<polygon display="none" fill="none" points="-86,30 85,30 85,-30 -86,-30 	"/>
</symbol>
<symbol  id="plus" viewBox="-71 -70.935 142 141.869">
	<path fill="#F76451" d="M70.923,0l0.013,8.721c0.013,9.002-7.373,16.609-16.375,16.623l-30.409,0.099l0.043,29.603
		c0.013,9-6.849,15.838-15.849,15.852L0,70.923V0H70.923z"/>
	<path fill="#E05B49" d="M0,70.923l-8.53,0.012c-9.002,0.014-17.017-6.787-17.03-15.787l0.011-29.576l-28.924,0.041
		c-9,0.014-16.438-7.68-16.45-16.682l0-8.93H0V70.923z"/>
	<path fill="#CC5343" d="M-70.923,0l-0.012-7.945c-0.013-9,7.416-16.184,16.416-16.198l28.951,0.013l-0.044-29.758
		c-0.013-9.002,7.871-17.023,16.874-17.037L0-70.924V0H-70.923z"/>
	<path fill="#D45644" d="M0,0v-70.924l8.137-0.011c9-0.014,15.775,7.998,15.788,17.002l0.099,29.783l30.437-0.045
		c9.003-0.014,16.424,7.041,16.438,16.039L70.923,0H0z"/>
	<polygon display="none" fill="none" points="-71,70 71,70 71,-70 -71,-70 	"/>
</symbol>
<pattern  x="1468" y="5765" width="72" height="72" patternUnits="userSpaceOnUse" id="Grid_1_pica_Lines" viewBox="72.25 -144.25 72 72" overflow="visible">
	<g>
		<polygon fill="none" points="72.25,-144.25 144.25,-144.25 144.25,-72.25 72.25,-72.25 		"/>
		<g>
			<line fill="none" stroke="#231F20" stroke-width="0.3" x1="78.25" y1="-72.5" x2="78.25" y2="0"/>
			<line fill="none" stroke="#231F20" stroke-width="0.3" x1="102.25" y1="-72.5" x2="102.25" y2="0"/>
			<line fill="none" stroke="#231F20" stroke-width="0.3" x1="126.25" y1="-72.5" x2="126.25" y2="0"/>
			<line fill="none" stroke="#231F20" stroke-width="0.3" x1="90.25" y1="-72.5" x2="90.25" y2="0"/>
			<line fill="none" stroke="#231F20" stroke-width="0.3" x1="114.25" y1="-72.5" x2="114.25" y2="0"/>
			<line fill="none" stroke="#231F20" stroke-width="0.3" x1="138.25" y1="-72.5" x2="138.25" y2="0"/>
		</g>
		<g>
			<line fill="none" stroke="#231F20" stroke-width="0.3" x1="144" y1="-78.25" x2="216.5" y2="-78.25"/>
			<line fill="none" stroke="#231F20" stroke-width="0.3" x1="144" y1="-102.25" x2="216.5" y2="-102.25"/>
			<line fill="none" stroke="#231F20" stroke-width="0.3" x1="144" y1="-126.25" x2="216.5" y2="-126.25"/>
			<line fill="none" stroke="#231F20" stroke-width="0.3" x1="144" y1="-90.25" x2="216.5" y2="-90.25"/>
			<line fill="none" stroke="#231F20" stroke-width="0.3" x1="144" y1="-114.25" x2="216.5" y2="-114.25"/>
			<line fill="none" stroke="#231F20" stroke-width="0.3" x1="144" y1="-138.25" x2="216.5" y2="-138.25"/>
		</g>
		<g>
			<line fill="none" stroke="#231F20" stroke-width="0.3" x1="78.25" y1="-144.5" x2="78.25" y2="-72"/>
			<line fill="none" stroke="#231F20" stroke-width="0.3" x1="102.25" y1="-144.5" x2="102.25" y2="-72"/>
			<line fill="none" stroke="#231F20" stroke-width="0.3" x1="126.25" y1="-144.5" x2="126.25" y2="-72"/>
			<line fill="none" stroke="#231F20" stroke-width="0.3" x1="72" y1="-78.25" x2="144.5" y2="-78.25"/>
			<line fill="none" stroke="#231F20" stroke-width="0.3" x1="72" y1="-102.25" x2="144.5" y2="-102.25"/>
			<line fill="none" stroke="#231F20" stroke-width="0.3" x1="72" y1="-126.25" x2="144.5" y2="-126.25"/>
			<line fill="none" stroke="#231F20" stroke-width="0.3" x1="72" y1="-90.25" x2="144.5" y2="-90.25"/>
			<line fill="none" stroke="#231F20" stroke-width="0.3" x1="72" y1="-114.25" x2="144.5" y2="-114.25"/>
			<line fill="none" stroke="#231F20" stroke-width="0.3" x1="72" y1="-138.25" x2="144.5" y2="-138.25"/>
			<line fill="none" stroke="#231F20" stroke-width="0.3" x1="90.25" y1="-144.5" x2="90.25" y2="-72"/>
			<line fill="none" stroke="#231F20" stroke-width="0.3" x1="114.25" y1="-144.5" x2="114.25" y2="-72"/>
			<line fill="none" stroke="#231F20" stroke-width="0.3" x1="138.25" y1="-144.5" x2="138.25" y2="-72"/>
		</g>
		<g>
			<line fill="none" stroke="#231F20" stroke-width="0.3" x1="0" y1="-78.25" x2="72.5" y2="-78.25"/>
			<line fill="none" stroke="#231F20" stroke-width="0.3" x1="0" y1="-102.25" x2="72.5" y2="-102.25"/>
			<line fill="none" stroke="#231F20" stroke-width="0.3" x1="0" y1="-126.25" x2="72.5" y2="-126.25"/>
			<line fill="none" stroke="#231F20" stroke-width="0.3" x1="0" y1="-90.25" x2="72.5" y2="-90.25"/>
			<line fill="none" stroke="#231F20" stroke-width="0.3" x1="0" y1="-114.25" x2="72.5" y2="-114.25"/>
			<line fill="none" stroke="#231F20" stroke-width="0.3" x1="0" y1="-138.25" x2="72.5" y2="-138.25"/>
		</g>
		<g>
			<line fill="none" stroke="#231F20" stroke-width="0.3" x1="78.25" y1="-216.5" x2="78.25" y2="-144"/>
			<line fill="none" stroke="#231F20" stroke-width="0.3" x1="102.25" y1="-216.5" x2="102.25" y2="-144"/>
			<line fill="none" stroke="#231F20" stroke-width="0.3" x1="126.25" y1="-216.5" x2="126.25" y2="-144"/>
			<line fill="none" stroke="#231F20" stroke-width="0.3" x1="90.25" y1="-216.5" x2="90.25" y2="-144"/>
			<line fill="none" stroke="#231F20" stroke-width="0.3" x1="114.25" y1="-216.5" x2="114.25" y2="-144"/>
			<line fill="none" stroke="#231F20" stroke-width="0.3" x1="138.25" y1="-216.5" x2="138.25" y2="-144"/>
		</g>
	</g>
</pattern>
<pattern  x="1468" y="5765" width="30" height="30" patternUnits="userSpaceOnUse" id="New_Pattern_Swatch_2" viewBox="0 -30 30 30" overflow="visible">
	<g>
		<polygon fill="none" points="0,0 30,0 30,-30 0,-30 		"/>
		<g>
			<polygon fill="#B0B3B3" points="30,-30 22.929,-30 0,-7.071 0,0 7.071,0 30,-22.929 			"/>
			<polygon fill="#B0B3B3" points="30,-7.071 22.929,0 30,0 			"/>
			<polygon fill="#B0B3B3" points="0,-30 0,-22.929 7.071,-30 			"/>
		</g>
	</g>
</pattern>
<g id="Layer_166">
</g>
<g id="vespa">
</g>
<g id="circus_1_">
</g>
<g id="lcdtv">
</g>
<g id="retrotv_1_">
</g>
<g id="submarine">
</g>
<g id="circus">
</g>
<g id="cabin">
</g>
<g id="cake">
</g>
<g id="beer">
</g>
<g id="UFO">
</g>
<g id="meteor">
</g>
<g id="GPS">
</g>
<g id="wallet">
</g>
<g id="safe">
</g>
<g id="pencil">
</g>
<g id="satelite">
</g>
<g id="coins">
</g>
<g id="guitar2">
</g>
<g id="tent">
</g>
<g id="boombox">
</g>
<g id="headphonehq">
</g>
<g id="clock">
	<g>
		<g id="background_4_">
			<circle fill="#ECF0F0" cx="319.5" cy="319.93" r="320"/>
		</g>
		<g>
			<circle fill="#E69632" cx="319.5" cy="319.93" r="319.349"/>
		</g>
		<g>
			<path fill="#E27C3E" d="M319.5,625.121c-81.52,0-158.159-31.748-215.803-89.39C46.056,478.09,14.31,401.448,14.31,319.93
				s31.746-158.16,89.388-215.801c57.644-57.643,134.283-89.39,215.803-89.39c81.519,0,158.16,31.748,215.802,89.39
				c57.642,57.641,89.388,134.283,89.388,215.801s-31.746,158.16-89.388,215.801C477.66,593.373,401.019,625.121,319.5,625.121z"/>
		</g>
		<g>
			<circle fill="#CD5929" cx="319.499" cy="319.93" r="254.806"/>
		</g>
		<g>
			<path fill="#FFFFFF" d="M319.5,560.577c-132.694,0-240.648-107.953-240.648-240.647c0-132.693,107.954-240.65,240.648-240.65
				s240.648,107.957,240.648,240.65C560.148,452.624,452.194,560.577,319.5,560.577z"/>
		</g>
		<g>
			<path fill="#334D5C" d="M115,321.325c0,4.75-3.102,9.675-7.853,9.675h-6.543c-4.75,0-9.604-4.925-9.604-9.675v-1.541
				c0-4.753,4.853-7.784,9.604-7.784h6.543c4.751,0,7.853,3.031,7.853,7.784V321.325z"/>
		</g>
		<g>
			<path fill="#334D5C" d="M143.625,218.535c-2.376,4.113-7.64,5.523-11.754,3.147l-5.943-3.431
				c-4.114-2.375-5.525-7.638-3.149-11.753l0.601-1.038c2.375-4.118,7.636-5.522,11.752-3.149l5.945,3.431
				c4.115,2.378,5.525,7.636,3.149,11.75L143.625,218.535z"/>
		</g>
		<g>
			<path fill="#334D5C" d="M143.515,422.423c2.376,4.115,0.966,9.375-3.149,11.751l-5.943,3.432
				c-4.115,2.375-9.377,0.967-11.752-3.148l-0.602-1.04c-2.374-4.116-0.964-9.376,3.151-11.751l5.943-3.434
				c4.115-2.375,9.376-0.963,11.751,3.151L143.515,422.423z"/>
		</g>
		<g opacity="0.3">
			<path fill="#5D5D5D" d="M420.735,312h-71.986c-3.367-7-9.749-13.099-15.749-16.033V164.89c0-8.21-6.79-14.867-15-14.867
				c-8.211,0-15,6.656-15,14.867v132.466c-9,5.624-15.885,16.157-15.885,28.238c0,8.029,3.143,15.377,7.964,21.054
				c-27.296,27.296-54.476,54.59-81.769,81.886c-1.284-0.82-2.745-1.299-4.378-1.299c-4.563,0-8.236,3.7-8.236,8.263
				c0,4.564,3.716,8.265,8.28,8.265c4.565,0,8.27-3.701,8.27-8.265c0-1.385-0.341-2.689-0.944-3.838
				c27.316-27.316,54.636-54.634,81.951-81.954c5.783,5.253,13.462,9.077,21.89,9.077c12.91,0,24.065-6.783,29.334-17.783h71.258
				c8.212,0,14.867-6.29,14.867-14.5C435.602,318.288,428.948,312,420.735,312z"/>
		</g>
		<g>
			<path fill="#334D5C" d="M317.933,318.361c-34.837,34.838-69.671,69.675-104.508,104.511c-1.282-0.819-2.8-1.298-4.434-1.298
				c-4.563,0-8.264,3.701-8.264,8.262c0,4.566,3.7,8.263,8.264,8.263c4.564,0,8.263-3.697,8.263-8.263
				c0-1.386-0.345-2.692-0.949-3.839c34.877-34.876,69.754-69.754,104.631-104.631C322.875,319.425,319.871,316.423,317.933,318.361
				z"/>
		</g>
		<g>
			<path fill="#334D5C" d="M327,107.59c0,4.75-3.835,8.41-8.587,8.41h-1.836c-4.751,0-8.577-3.66-8.577-8.41v-5.849
				c0-4.751,3.826-9.741,8.577-9.741h1.836c4.752,0,8.587,4.99,8.587,9.741V107.59z"/>
		</g>
		<g>
			<path fill="#334D5C" d="M327,538.667c0,4.75-1.893,9.333-6.645,9.333h-1.991c-4.752,0-10.365-4.583-10.365-9.333v-6.262
				c0-4.751,5.613-7.405,10.365-7.405h1.991c4.752,0,6.645,2.654,6.645,7.405V538.667z"/>
		</g>
		<g>
			<path fill="#334D5C" d="M546,321.325c0,4.75-4.103,9.675-8.854,9.675h-6.541c-4.752,0-8.604-4.925-8.604-9.675v-1.541
				c0-4.753,3.852-7.784,8.604-7.784h6.541c4.752,0,8.854,3.031,8.854,7.784V321.325z"/>
		</g>
		<g>
			<path fill="#334D5C" d="M433.746,140.796c-2.377,4.115-7.638,5.525-11.751,3.148l-1.041-0.6
				c-4.114-2.376-5.525-7.636-3.146-11.751l3.429-5.944c2.378-4.115,7.636-5.526,11.754-3.151l1.037,0.601
				c4.116,2.378,5.525,7.637,3.149,11.75L433.746,140.796z"/>
		</g>
		<g>
			<path fill="#334D5C" d="M217.822,514.785c-2.375,4.116-7.637,5.526-11.752,3.151l-1.039-0.6
				c-4.116-2.374-5.526-7.637-3.149-11.752l3.433-5.944c2.376-4.113,7.636-5.524,11.751-3.149l1.039,0.599
				c4.115,2.375,5.526,7.64,3.149,11.755L217.822,514.785z"/>
		</g>
		<g>
			<path fill="#334D5C" d="M517.614,434.457c-2.374,4.114-7.636,5.525-11.751,3.149l-5.943-3.432
				c-4.115-2.376-5.525-7.639-3.149-11.753l0.598-1.04c2.376-4.114,7.639-5.523,11.752-3.148l5.945,3.434
				c4.116,2.375,5.525,7.635,3.149,11.751L517.614,434.457z"/>
		</g>
		<g>
			<path fill="#334D5C" d="M221.254,132.303c2.376,4.114,0.965,9.372-3.149,11.75l-1.039,0.6c-4.117,2.378-9.377,0.968-11.753-3.147
				l-3.432-5.945c-2.375-4.115-0.965-9.375,3.148-11.753l1.04-0.6c4.115-2.374,9.376-0.967,11.753,3.149L221.254,132.303z"/>
		</g>
		<g>
			<path fill="#334D5C" d="M437.177,506.291c2.375,4.116,0.967,9.379-3.149,11.753l-1.04,0.601
				c-4.115,2.376-9.377,0.964-11.751-3.149l-3.431-5.945c-2.376-4.114-0.968-9.375,3.146-11.751l1.042-0.601
				c4.112-2.375,9.375-0.965,11.751,3.15L437.177,506.291z"/>
		</g>
		<g>
			<path fill="#334D5C" d="M517.507,206.498c2.374,4.117,0.967,9.378-3.151,11.753l-5.946,3.431
				c-4.112,2.376-9.375,0.966-11.75-3.147l-0.599-1.041c-2.376-4.114-0.968-9.375,3.147-11.752l5.946-3.431
				c4.115-2.374,9.376-0.966,11.751,3.149L517.507,206.498z"/>
		</g>
		<g>
			<path fill="#334D5C" d="M333,328.618c0,8.469-6.725,15.382-14.988,15.382h-0.019C309.73,344,303,337.087,303,328.618V159.679
				c0-8.469,6.73-15.679,14.994-15.679h0.019c8.263,0,14.988,7.21,14.988,15.679V328.618z"/>
		</g>
		<g>
			<path fill="#334D5C" d="M433,319.817c0,8.211-6.399,14.183-14.609,14.183h-84.527c-8.21,0-14.864-5.972-14.864-14.183v-0.333
				c0-8.211,6.654-14.484,14.864-14.484h84.527c8.209,0,14.609,6.273,14.609,14.484V319.817z"/>
		</g>
		<g>
			<circle fill="#CD5929" cx="320.142" cy="319.93" r="32.565"/>
		</g>
		<g>
			<circle fill="#E27C3E" cx="320.142" cy="319.93" r="21.002"/>
		</g>
		<g opacity="0.3">
			<path fill="#787878" d="M0.151,319.93c0,176.373,142.977,319.35,319.349,319.35c69.394,0,133.606-22.146,185.987-59.735
				L59.885,133.942C22.294,186.321,0.151,250.538,0.151,319.93z"/>
		</g>
	</g>
</g>
<g id="gamepad">
</g>
</svg>
