<?xml version="1.0" encoding="utf-8"?>
<!-- Generator: Adobe Illustrator 16.2.0, SVG Export Plug-In . SVG Version: 6.00 Build 0)  -->
<!DOCTYPE svg PUBLIC "-//W3C//DTD SVG 1.1//EN" "http://www.w3.org/Graphics/SVG/1.1/DTD/svg11.dtd">
<svg version="1.1" xmlns="http://www.w3.org/2000/svg" xmlns:xlink="http://www.w3.org/1999/xlink" x="0px" y="0px" width="640px"
	 height="640px" viewBox="0 0 640 640" enable-background="new 0 0 640 640" xml:space="preserve">
<symbol  id="minus" viewBox="-86 -30 171 60">
	<path fill="#EFC84A" d="M85,9.893C85,20.825,76.496,30,65.56,30H-66.437C-77.373,30-86,20.825-86,9.893V-1H85V9.893z"/>
	<path fill="#D9B543" d="M-86-1v-9.568C-86-21.505-77.373-30-66.437-30H65.56C76.496-30,85-21.505,85-10.568V-1H-86z"/>
	<polygon display="none" fill="none" points="-86,30 85,30 85,-30 -86,-30 	"/>
</symbol>
<symbol  id="plus" viewBox="-71 -70.935 142 141.869">
	<path fill="#F76451" d="M70.923,0l0.013,8.721c0.013,9.002-7.373,16.609-16.375,16.623l-30.409,0.099l0.043,29.603
		c0.013,9-6.849,15.838-15.849,15.852L0,70.923V0H70.923z"/>
	<path fill="#E05B49" d="M0,70.923l-8.53,0.012c-9.002,0.014-17.017-6.787-17.03-15.787l0.011-29.576l-28.924,0.041
		c-9,0.014-16.438-7.68-16.45-16.682l0-8.93H0V70.923z"/>
	<path fill="#CC5343" d="M-70.923,0l-0.012-7.945c-0.013-9,7.416-16.184,16.416-16.198l28.951,0.013l-0.044-29.758
		c-0.013-9.002,7.871-17.023,16.874-17.037L0-70.924V0H-70.923z"/>
	<path fill="#D45644" d="M0,0v-70.924l8.137-0.011c9-0.014,15.775,7.998,15.788,17.002l0.099,29.783l30.437-0.045
		c9.003-0.014,16.424,7.041,16.438,16.039L70.923,0H0z"/>
	<polygon display="none" fill="none" points="-71,70 71,70 71,-70 -71,-70 	"/>
</symbol>
<pattern  x="2924" y="5765" width="72" height="72" patternUnits="userSpaceOnUse" id="Grid_1_pica_Lines" viewBox="72.25 -144.25 72 72" overflow="visible">
	<g>
		<polygon fill="none" points="72.25,-144.25 144.25,-144.25 144.25,-72.25 72.25,-72.25 		"/>
		<g>
			<line fill="none" stroke="#231F20" stroke-width="0.3" x1="78.25" y1="-72.5" x2="78.25" y2="0"/>
			<line fill="none" stroke="#231F20" stroke-width="0.3" x1="102.25" y1="-72.5" x2="102.25" y2="0"/>
			<line fill="none" stroke="#231F20" stroke-width="0.3" x1="126.25" y1="-72.5" x2="126.25" y2="0"/>
			<line fill="none" stroke="#231F20" stroke-width="0.3" x1="90.25" y1="-72.5" x2="90.25" y2="0"/>
			<line fill="none" stroke="#231F20" stroke-width="0.3" x1="114.25" y1="-72.5" x2="114.25" y2="0"/>
			<line fill="none" stroke="#231F20" stroke-width="0.3" x1="138.25" y1="-72.5" x2="138.25" y2="0"/>
		</g>
		<g>
			<line fill="none" stroke="#231F20" stroke-width="0.3" x1="144" y1="-78.25" x2="216.5" y2="-78.25"/>
			<line fill="none" stroke="#231F20" stroke-width="0.3" x1="144" y1="-102.25" x2="216.5" y2="-102.25"/>
			<line fill="none" stroke="#231F20" stroke-width="0.3" x1="144" y1="-126.25" x2="216.5" y2="-126.25"/>
			<line fill="none" stroke="#231F20" stroke-width="0.3" x1="144" y1="-90.25" x2="216.5" y2="-90.25"/>
			<line fill="none" stroke="#231F20" stroke-width="0.3" x1="144" y1="-114.25" x2="216.5" y2="-114.25"/>
			<line fill="none" stroke="#231F20" stroke-width="0.3" x1="144" y1="-138.25" x2="216.5" y2="-138.25"/>
		</g>
		<g>
			<line fill="none" stroke="#231F20" stroke-width="0.3" x1="78.25" y1="-144.5" x2="78.25" y2="-72"/>
			<line fill="none" stroke="#231F20" stroke-width="0.3" x1="102.25" y1="-144.5" x2="102.25" y2="-72"/>
			<line fill="none" stroke="#231F20" stroke-width="0.3" x1="126.25" y1="-144.5" x2="126.25" y2="-72"/>
			<line fill="none" stroke="#231F20" stroke-width="0.3" x1="72" y1="-78.25" x2="144.5" y2="-78.25"/>
			<line fill="none" stroke="#231F20" stroke-width="0.3" x1="72" y1="-102.25" x2="144.5" y2="-102.25"/>
			<line fill="none" stroke="#231F20" stroke-width="0.3" x1="72" y1="-126.25" x2="144.5" y2="-126.25"/>
			<line fill="none" stroke="#231F20" stroke-width="0.3" x1="72" y1="-90.25" x2="144.5" y2="-90.25"/>
			<line fill="none" stroke="#231F20" stroke-width="0.3" x1="72" y1="-114.25" x2="144.5" y2="-114.25"/>
			<line fill="none" stroke="#231F20" stroke-width="0.3" x1="72" y1="-138.25" x2="144.5" y2="-138.25"/>
			<line fill="none" stroke="#231F20" stroke-width="0.3" x1="90.25" y1="-144.5" x2="90.25" y2="-72"/>
			<line fill="none" stroke="#231F20" stroke-width="0.3" x1="114.25" y1="-144.5" x2="114.25" y2="-72"/>
			<line fill="none" stroke="#231F20" stroke-width="0.3" x1="138.25" y1="-144.5" x2="138.25" y2="-72"/>
		</g>
		<g>
			<line fill="none" stroke="#231F20" stroke-width="0.3" x1="0" y1="-78.25" x2="72.5" y2="-78.25"/>
			<line fill="none" stroke="#231F20" stroke-width="0.3" x1="0" y1="-102.25" x2="72.5" y2="-102.25"/>
			<line fill="none" stroke="#231F20" stroke-width="0.3" x1="0" y1="-126.25" x2="72.5" y2="-126.25"/>
			<line fill="none" stroke="#231F20" stroke-width="0.3" x1="0" y1="-90.25" x2="72.5" y2="-90.25"/>
			<line fill="none" stroke="#231F20" stroke-width="0.3" x1="0" y1="-114.25" x2="72.5" y2="-114.25"/>
			<line fill="none" stroke="#231F20" stroke-width="0.3" x1="0" y1="-138.25" x2="72.5" y2="-138.25"/>
		</g>
		<g>
			<line fill="none" stroke="#231F20" stroke-width="0.3" x1="78.25" y1="-216.5" x2="78.25" y2="-144"/>
			<line fill="none" stroke="#231F20" stroke-width="0.3" x1="102.25" y1="-216.5" x2="102.25" y2="-144"/>
			<line fill="none" stroke="#231F20" stroke-width="0.3" x1="126.25" y1="-216.5" x2="126.25" y2="-144"/>
			<line fill="none" stroke="#231F20" stroke-width="0.3" x1="90.25" y1="-216.5" x2="90.25" y2="-144"/>
			<line fill="none" stroke="#231F20" stroke-width="0.3" x1="114.25" y1="-216.5" x2="114.25" y2="-144"/>
			<line fill="none" stroke="#231F20" stroke-width="0.3" x1="138.25" y1="-216.5" x2="138.25" y2="-144"/>
		</g>
	</g>
</pattern>
<pattern  x="2924" y="5765" width="30" height="30" patternUnits="userSpaceOnUse" id="New_Pattern_Swatch_2" viewBox="0 -30 30 30" overflow="visible">
	<g>
		<polygon fill="none" points="0,0 30,0 30,-30 0,-30 		"/>
		<g>
			<polygon fill="#B0B3B3" points="30,-30 22.929,-30 0,-7.071 0,0 7.071,0 30,-22.929 			"/>
			<polygon fill="#B0B3B3" points="30,-7.071 22.929,0 30,0 			"/>
			<polygon fill="#B0B3B3" points="0,-30 0,-22.929 7.071,-30 			"/>
		</g>
	</g>
</pattern>
<g id="Layer_166">
</g>
<g id="vespa">
</g>
<g id="circus_1_">
</g>
<g id="lcdtv">
</g>
<g id="retrotv_1_">
</g>
<g id="submarine">
</g>
<g id="circus">
</g>
<g id="cabin">
</g>
<g id="cake">
</g>
<g id="beer">
</g>
<g id="UFO">
</g>
<g id="meteor">
</g>
<g id="GPS">
</g>
<g id="wallet">
</g>
<g id="safe">
	<g>
		<circle fill="#EFC84A" cx="320" cy="320" r="320"/>
		<path fill="#797A7A" d="M466.178,94.844C462.879,87.136,453.318,81,444.934,81H195.066c-8.385,0-17.945,6.136-21.244,13.844
			l-19.575,45.059c-3.298,7.709-6.247,20.79-6.247,29.175v90.707c0,8.385,7.356,16.216,15.74,16.216h312.52
			c8.384,0,14.74-7.832,14.74-16.216v-90.707c0-8.385-2.448-21.466-5.749-29.175L466.178,94.844z"/>
		<path opacity="0.3" fill="#5D5D5D" d="M240.596,80.707h-45.529c-8.385,0-17.945,6.28-21.244,13.99l-19.554,45.132
			c-3.298,7.708-6.226,20.863-6.226,29.248v90.707c0,8.385,7.313,14.674,15.697,14.674h274.506L240.596,80.707z"/>
		<path fill="#949696" d="M490,523.755c0,8.419-6.825,15.245-15.244,15.245H163.244c-8.419,0-15.244-6.826-15.244-15.245v-352.51
			c0-8.419,6.825-15.245,15.244-15.245h311.512c8.419,0,15.244,6.826,15.244,15.245V523.755z"/>
		<path fill="#A3A6A6" d="M482,523.377c0,4.21-3.413,7.623-7.622,7.623H161.622c-4.209,0-7.622-3.413-7.622-7.623V169.623
			c0-4.21,3.413-7.623,7.622-7.623h312.756c4.209,0,7.622,3.413,7.622,7.623V523.377z"/>
		<path fill="#949696" d="M464,494.754c0,8.42-6.825,15.246-15.245,15.246h-261.51c-8.42,0-15.245-6.826-15.245-15.246V196.246
			c0-8.42,6.825-15.246,15.245-15.246h261.51c8.42,0,15.245,6.826,15.245,15.246V494.754z"/>
		<path fill="#A3A6A6" d="M459,487.755c0,8.419-6.825,15.245-15.245,15.245h-247.51c-8.42,0-15.245-6.826-15.245-15.245v-282.51
			c0-8.419,6.825-15.245,15.245-15.245h247.51c8.42,0,15.245,6.826,15.245,15.245V487.755z"/>
		<circle fill="#949696" cx="320.011" cy="343.142" r="83.943"/>
		<circle fill="#949696" cx="320.011" cy="331.851" r="83.943"/>
		<path fill="#888A8A" d="M320.011,422.38c-43.692,0-79.238-35.547-79.238-79.238s35.546-79.239,79.238-79.239
			s79.238,35.548,79.238,79.239S363.703,422.38,320.011,422.38z"/>
		<path fill="#7B7D7D" d="M320.011,403.462c-33.261,0-60.318-27.061-60.318-60.32c0-33.259,27.058-60.316,60.318-60.316
			c33.26,0,60.319,27.058,60.319,60.316C380.33,376.401,353.271,403.462,320.011,403.462z"/>
		<circle fill="#A3A6A6" cx="320.011" cy="343.142" r="55.614"/>
		<circle fill="#919494" cx="319.776" cy="342.906" r="34.679"/>
		<path fill="#B9BDBD" d="M464,343c0,6.075-4.925,11-11,11H342c-6.075,0-11-4.925-11-11l0,0c0-6.075,4.925-11,11-11h111
			C459.075,332,464,336.925,464,343L464,343z"/>
		<path fill="#B9BDBD" d="M331,478c0,6.075-4.925,11-11,11l0,0c-6.075,0-11-4.925-11-11V367c0-6.075,4.925-11,11-11l0,0
			c6.075,0,11,4.925,11,11V478z"/>
		<path fill="#919494" d="M330,478c0,6.075-4.925,11-11,11l0,0c-6.075,0-11-4.925-11-11V367c0-6.075,4.925-11,11-11l0,0
			c6.075,0,11,4.925,11,11V478z"/>
		<path fill="#919494" d="M330,210c0-6.075-4.925-11-11-11l0,0c-6.075,0-11,4.925-11,11v111c0,6.075,4.925,11,11,11l0,0
			c6.075,0,11-4.925,11-11V210z"/>
		<path fill="#919494" d="M464,343c0,6.075-4.925,11-11,11H342c-6.075,0-11-4.925-11-11l0,0c0-6.075,4.925-11,11-11h111
			C459.075,332,464,336.925,464,343L464,343z"/>
		<path fill="#919494" d="M307,343c0-6.075-4.925-11-11-11H185c-6.075,0-11,4.925-11,11l0,0c0,6.075,4.925,11,11,11h111
			C302.075,354,307,349.075,307,343L307,343z"/>
		<path fill="#B9BDBD" d="M330,482c0,6.075-4.925,11-11,11l0,0c-6.075,0-11-4.925-11-11V371c0-6.075,4.925-11,11-11l0,0
			c6.075,0,11,4.925,11,11V482z"/>
		<path fill="#B9BDBD" d="M330,214c0-6.075-4.925-11-11-11l0,0c-6.075,0-11,4.925-11,11v111c0,6.075,4.925,11,11,11l0,0
			c6.075,0,11-4.925,11-11V214z"/>
		<path fill="#B9BDBD" d="M464,348c0,6.075-4.925,11-11,11H342c-6.075,0-11-4.925-11-11l0,0c0-6.075,4.925-11,11-11h111
			C459.075,337,464,341.925,464,348L464,348z"/>
		<path fill="#B9BDBD" d="M307,348c0-6.075-4.925-11-11-11H185c-6.075,0-11,4.925-11,11l0,0c0,6.075,4.925,11,11,11h111
			C302.075,359,307,354.075,307,348L307,348z"/>
		<circle fill="#CACFCF" cx="319.658" cy="342.789" r="23.271"/>
		<circle fill="#B9BDBD" cx="319.776" cy="347.611" r="34.679"/>
		<circle fill="#B3B8B8" cx="319.658" cy="342.789" r="23.271"/>
		<circle fill="#CACFCF" cx="319.658" cy="347.492" r="23.271"/>
		<rect x="174" y="538" fill="#5D5D5D" width="50" height="22"/>
		<rect x="413" y="538" fill="#5D5D5D" width="50" height="22"/>
		<path opacity="0.3" fill="#5D5D5D" d="M148.043,521.993c0,8.385,7.313,14.963,15.697,14.963h11.803v22.5h50v-22.5h152.593
			L148.043,265.521V521.993z"/>
	</g>
</g>
<g id="pencil">
</g>
<g id="satelite">
</g>
<g id="coins">
</g>
<g id="guitar2">
</g>
<g id="tent">
</g>
<g id="boombox">
</g>
<g id="headphonehq">
</g>
<g id="clock">
</g>
<g id="gamepad">
</g>
</svg>
