<?xml version="1.0" encoding="utf-8"?>
<!-- Generator: Adobe Illustrator 16.2.0, SVG Export Plug-In . SVG Version: 6.00 Build 0)  -->
<!DOCTYPE svg PUBLIC "-//W3C//DTD SVG 1.1//EN" "http://www.w3.org/Graphics/SVG/1.1/DTD/svg11.dtd">
<svg version="1.1" xmlns="http://www.w3.org/2000/svg" xmlns:xlink="http://www.w3.org/1999/xlink" x="0px" y="0px" width="640px"
	 height="640px" viewBox="0 0 640 640" enable-background="new 0 0 640 640" xml:space="preserve">
<symbol  id="minus" viewBox="-86 -30 171 60">
	<path fill="#EFC84A" d="M85,9.893C85,20.825,76.496,30,65.56,30H-66.437C-77.373,30-86,20.825-86,9.893V-1H85V9.893z"/>
	<path fill="#D9B543" d="M-86-1v-9.568C-86-21.505-77.373-30-66.437-30H65.56C76.496-30,85-21.505,85-10.568V-1H-86z"/>
	<polygon display="none" fill="none" points="-86,30 85,30 85,-30 -86,-30 	"/>
</symbol>
<symbol  id="plus" viewBox="-71 -70.935 142 141.869">
	<path fill="#F76451" d="M70.923,0l0.013,8.721c0.013,9.002-7.373,16.609-16.375,16.623l-30.409,0.099l0.043,29.603
		c0.013,9-6.849,15.838-15.849,15.852L0,70.923V0H70.923z"/>
	<path fill="#E05B49" d="M0,70.923l-8.53,0.012c-9.002,0.014-17.017-6.787-17.03-15.787l0.011-29.576l-28.924,0.041
		c-9,0.014-16.438-7.68-16.45-16.682l0-8.93H0V70.923z"/>
	<path fill="#CC5343" d="M-70.923,0l-0.012-7.945c-0.013-9,7.416-16.184,16.416-16.198l28.951,0.013l-0.044-29.758
		c-0.013-9.002,7.871-17.023,16.874-17.037L0-70.924V0H-70.923z"/>
	<path fill="#D45644" d="M0,0v-70.924l8.137-0.011c9-0.014,15.775,7.998,15.788,17.002l0.099,29.783l30.437-0.045
		c9.003-0.014,16.424,7.041,16.438,16.039L70.923,0H0z"/>
	<polygon display="none" fill="none" points="-71,70 71,70 71,-70 -71,-70 	"/>
</symbol>
<pattern  x="2924" y="6485" width="72" height="72" patternUnits="userSpaceOnUse" id="Grid_1_pica_Lines" viewBox="72.25 -144.25 72 72" overflow="visible">
	<g>
		<polygon fill="none" points="72.25,-144.25 144.25,-144.25 144.25,-72.25 72.25,-72.25 		"/>
		<g>
			<line fill="none" stroke="#231F20" stroke-width="0.3" x1="78.25" y1="-72.5" x2="78.25" y2="0"/>
			<line fill="none" stroke="#231F20" stroke-width="0.3" x1="102.25" y1="-72.5" x2="102.25" y2="0"/>
			<line fill="none" stroke="#231F20" stroke-width="0.3" x1="126.25" y1="-72.5" x2="126.25" y2="0"/>
			<line fill="none" stroke="#231F20" stroke-width="0.3" x1="90.25" y1="-72.5" x2="90.25" y2="0"/>
			<line fill="none" stroke="#231F20" stroke-width="0.3" x1="114.25" y1="-72.5" x2="114.25" y2="0"/>
			<line fill="none" stroke="#231F20" stroke-width="0.3" x1="138.25" y1="-72.5" x2="138.25" y2="0"/>
		</g>
		<g>
			<line fill="none" stroke="#231F20" stroke-width="0.3" x1="144" y1="-78.25" x2="216.5" y2="-78.25"/>
			<line fill="none" stroke="#231F20" stroke-width="0.3" x1="144" y1="-102.25" x2="216.5" y2="-102.25"/>
			<line fill="none" stroke="#231F20" stroke-width="0.3" x1="144" y1="-126.25" x2="216.5" y2="-126.25"/>
			<line fill="none" stroke="#231F20" stroke-width="0.3" x1="144" y1="-90.25" x2="216.5" y2="-90.25"/>
			<line fill="none" stroke="#231F20" stroke-width="0.3" x1="144" y1="-114.25" x2="216.5" y2="-114.25"/>
			<line fill="none" stroke="#231F20" stroke-width="0.3" x1="144" y1="-138.25" x2="216.5" y2="-138.25"/>
		</g>
		<g>
			<line fill="none" stroke="#231F20" stroke-width="0.3" x1="78.25" y1="-144.5" x2="78.25" y2="-72"/>
			<line fill="none" stroke="#231F20" stroke-width="0.3" x1="102.25" y1="-144.5" x2="102.25" y2="-72"/>
			<line fill="none" stroke="#231F20" stroke-width="0.3" x1="126.25" y1="-144.5" x2="126.25" y2="-72"/>
			<line fill="none" stroke="#231F20" stroke-width="0.3" x1="72" y1="-78.25" x2="144.5" y2="-78.25"/>
			<line fill="none" stroke="#231F20" stroke-width="0.3" x1="72" y1="-102.25" x2="144.5" y2="-102.25"/>
			<line fill="none" stroke="#231F20" stroke-width="0.3" x1="72" y1="-126.25" x2="144.5" y2="-126.25"/>
			<line fill="none" stroke="#231F20" stroke-width="0.3" x1="72" y1="-90.25" x2="144.5" y2="-90.25"/>
			<line fill="none" stroke="#231F20" stroke-width="0.3" x1="72" y1="-114.25" x2="144.5" y2="-114.25"/>
			<line fill="none" stroke="#231F20" stroke-width="0.3" x1="72" y1="-138.25" x2="144.5" y2="-138.25"/>
			<line fill="none" stroke="#231F20" stroke-width="0.3" x1="90.25" y1="-144.5" x2="90.25" y2="-72"/>
			<line fill="none" stroke="#231F20" stroke-width="0.3" x1="114.25" y1="-144.5" x2="114.25" y2="-72"/>
			<line fill="none" stroke="#231F20" stroke-width="0.3" x1="138.25" y1="-144.5" x2="138.25" y2="-72"/>
		</g>
		<g>
			<line fill="none" stroke="#231F20" stroke-width="0.3" x1="0" y1="-78.25" x2="72.5" y2="-78.25"/>
			<line fill="none" stroke="#231F20" stroke-width="0.3" x1="0" y1="-102.25" x2="72.5" y2="-102.25"/>
			<line fill="none" stroke="#231F20" stroke-width="0.3" x1="0" y1="-126.25" x2="72.5" y2="-126.25"/>
			<line fill="none" stroke="#231F20" stroke-width="0.3" x1="0" y1="-90.25" x2="72.5" y2="-90.25"/>
			<line fill="none" stroke="#231F20" stroke-width="0.3" x1="0" y1="-114.25" x2="72.5" y2="-114.25"/>
			<line fill="none" stroke="#231F20" stroke-width="0.3" x1="0" y1="-138.25" x2="72.5" y2="-138.25"/>
		</g>
		<g>
			<line fill="none" stroke="#231F20" stroke-width="0.3" x1="78.25" y1="-216.5" x2="78.25" y2="-144"/>
			<line fill="none" stroke="#231F20" stroke-width="0.3" x1="102.25" y1="-216.5" x2="102.25" y2="-144"/>
			<line fill="none" stroke="#231F20" stroke-width="0.3" x1="126.25" y1="-216.5" x2="126.25" y2="-144"/>
			<line fill="none" stroke="#231F20" stroke-width="0.3" x1="90.25" y1="-216.5" x2="90.25" y2="-144"/>
			<line fill="none" stroke="#231F20" stroke-width="0.3" x1="114.25" y1="-216.5" x2="114.25" y2="-144"/>
			<line fill="none" stroke="#231F20" stroke-width="0.3" x1="138.25" y1="-216.5" x2="138.25" y2="-144"/>
		</g>
	</g>
</pattern>
<pattern  x="2924" y="6485" width="30" height="30" patternUnits="userSpaceOnUse" id="New_Pattern_Swatch_2" viewBox="0 -30 30 30" overflow="visible">
	<g>
		<polygon fill="none" points="0,0 30,0 30,-30 0,-30 		"/>
		<g>
			<polygon fill="#B0B3B3" points="30,-30 22.929,-30 0,-7.071 0,0 7.071,0 30,-22.929 			"/>
			<polygon fill="#B0B3B3" points="30,-7.071 22.929,0 30,0 			"/>
			<polygon fill="#B0B3B3" points="0,-30 0,-22.929 7.071,-30 			"/>
		</g>
	</g>
</pattern>
<g id="Layer_166">
</g>
<g id="vespa">
</g>
<g id="circus_1_">
</g>
<g id="lcdtv">
</g>
<g id="retrotv_1_">
</g>
<g id="submarine">
</g>
<g id="circus">
</g>
<g id="cabin">
</g>
<g id="cake">
</g>
<g id="beer">
</g>
<g id="UFO">
</g>
<g id="meteor">
	<g>
		<path id="bg_20_" fill="#334D5C" d="M640,319.998C640,496.724,496.736,640,320.002,640C143.267,640,0,496.724,0,319.998
			S143.267,0,320.002,0C496.736,0,640,143.272,640,319.998z"/>
		<path fill="#939FA7" d="M407.988,62.345c8.069-1.645,21.192-2.827,21.192-2.827s-13.306-1.028-21.326-2.617
			c0.979-4.541,3.782-11.65,3.782-11.65s-6.841,2.699-11.387,3.718c-1.528-8.12-2.515-21.261-2.515-21.261
			s-0.923,13.483-2.483,21.348c-4.521-0.941-11.785-3.805-11.785-3.805s2.595,6.589,3.66,11.133
			c-8.21,1.611-21.204,2.769-21.204,2.769s13.115,1.255,21.245,2.949c-1.028,4.543-3.701,11.317-3.701,11.317
			s7.007-2.762,11.55-3.751c1.499,7.947,2.351,21.296,2.351,21.296s1.143-13.403,2.802-21.278
			c4.553,1.009,11.465,3.732,11.465,3.732S409.06,66.891,407.988,62.345z"/>
		<path fill="#939FA7" d="M84.75,185.806c4.183-0.851,10.979-1.467,10.979-1.467s-6.892-0.532-11.047-1.354
			c0.508-2.353,1.958-6.034,1.958-6.034s-3.542,1.397-5.896,1.926c-0.792-4.206-1.306-11.013-1.306-11.013
			s-0.476,6.985-1.284,11.057c-2.344-0.488-6.104-1.97-6.104-1.97s1.343,3.413,1.895,5.767c-4.253,0.832-10.984,1.435-10.984,1.435
			s6.795,0.648,11.006,1.527c-0.532,2.354-1.916,5.861-1.916,5.861s3.628-1.428,5.981-1.942c0.779,4.118,1.221,11.032,1.221,11.032
			s0.591-6.941,1.452-11.021c2.356,0.521,5.935,1.931,5.935,1.931S85.306,188.163,84.75,185.806z"/>
		<path fill="#939FA7" d="M513.64,495.889c9.048-1.842,23.75-3.172,23.75-3.172s-14.91-1.15-23.896-2.928
			c1.096-5.088,4.236-13.053,4.236-13.053s-7.666,3.019-12.754,4.166c-1.711-9.1-2.825-23.824-2.825-23.824
			s-1.03,15.11-2.775,23.921c-5.073-1.057-13.206-4.263-13.206-4.263s2.906,7.386,4.097,12.473
			c-9.199,1.801-23.755,3.108-23.755,3.108s14.692,1.399,23.804,3.301c-1.149,5.088-4.146,12.681-4.146,12.681
			s7.849-3.092,12.937-4.201c1.685,8.901,2.642,23.86,2.642,23.86s1.282-15.015,3.138-23.838c5.1,1.127,12.844,4.179,12.844,4.179
			S514.846,500.989,513.64,495.889z"/>
		<path fill="#41ACB7" d="M201.91,542.385c-47.939,17.528-101.013-7.123-118.535-55.075
			c-17.527-47.938,7.139-101.011,55.081-118.533c47.942-17.531,101.01,7.132,118.537,55.069
			C274.509,471.794,249.856,524.863,201.91,542.385z"/>
		<path fill="#E27C3E" d="M453.064,148.365l0.704-3.012c0.356-2.125,1.223-3.983,1.923-6c3.096-7.864,8.574-14.819,15.223-19.99
			c1.553-1.484,3.435-2.397,5.129-3.625c0.869-0.573,1.724-1.184,2.605-1.712c0.925-0.464,1.846-0.916,2.75-1.364
			c1.831-0.877,3.604-1.895,5.435-2.625c1.879-0.679,3.71-1.326,5.476-1.958c7.204-2.396,14.019-3.722,19.695-4.322
			c5.71-0.935,10.266-0.779,13.411-0.949c3.156-0.1,4.841-0.159,4.841-0.159s-1.584-0.546-4.563-1.586
			c-3.003-0.955-7.361-2.813-13.257-4.041c-5.84-1.561-13.171-2.888-21.943-3.335c-2.227-0.049-4.514-0.101-6.87-0.156
			c-2.375,0.033-4.822,0.357-7.373,0.561c-1.284,0.12-2.581,0.25-3.899,0.376c-1.301,0.22-2.615,0.532-3.959,0.803
			c-2.661,0.651-5.53,0.994-8.274,2.037c-11.229,3.327-23.369,9.825-33.711,20.351c-2.504,2.681-5.192,5.381-7.37,8.55
			c-1.136,1.555-2.317,3.116-3.408,4.749c-1.001,1.711-2.002,3.438-3.016,5.168l-1.489,2.659l-1.252,2.805
			c-0.828,1.922-1.651,3.845-2.48,5.781c-0.718,2.315-1.407,4.7-2.044,7.125c-0.461,1.909-0.938,3.821-1.406,5.746l-0.561,2.303
			l-0.271,1.156l-0.042,0.144c0-0.263-0.086,2.866-0.063,1.594l-0.059,0.244l-0.119,0.492l-0.923,3.913
			c-0.75,2.516-1.36,5.088-2.278,7.405c-1.583,4.802-3.809,9.011-6.086,12.883c-4.92,7.561-10.64,13.189-17.835,17.507
			c-7.06,4.329-15.52,7.735-24.401,10.194c-2.024,0.375-3.967,0.773-5.835,1.191c-3.008,0.755-6.006,1.503-8.989,2.255l-2.349,0.591
			l-0.663,0.17c2.802-3.521,5.632-7.447,8.282-11.832c2.242-3.731,4.341-7.792,6.033-12.203c1.689-4.407,2.964-9.188,3.398-14.167
			c0.246-2.475,0.205-5.015-0.034-7.504c-0.044-0.666-0.122-1.175-0.193-1.667l-0.215-1.52c-0.148-1.018-0.295-2.023-0.437-3.036
			c-0.55-3.985-1.138-7.923-1.492-11.612c-0.355-3.691-0.617-7.243-0.319-10.391c0.264-3.17,1.05-5.975,2.404-8.352
			c1.284-2.434,3.337-4.207,5.113-5.813c0.991-0.714,1.917-1.389,2.771-2.014c0.91-0.554,1.755-1.063,2.52-1.526
			c1.514-0.95,2.819-1.504,3.664-1.978c0.864-0.44,1.326-0.676,1.326-0.676s-0.498,0.126-1.445,0.361
			c-0.923,0.271-2.344,0.524-4.063,1.121c-0.872,0.289-1.839,0.61-2.893,0.96c-1.028,0.438-2.144,0.915-3.342,1.425
			c-2.273,1.265-5.026,2.703-7.351,5.324c-2.374,2.532-4.273,5.987-5.455,9.722c-1.244,3.753-1.823,7.686-2.353,11.676
			c-0.521,4.013-0.833,8.037-1.192,12.125l-0.257,3.049l-0.122,1.535c-0.041,0.522-0.085,1.035-0.161,1.397
			c-0.241,1.597-0.569,3.179-1.128,4.731c-2.08,6.223-6.346,11.974-11.084,16.833c-2.937,3.021-6.045,5.723-9.083,8.111
			c0.245-3.548,0.159-6.943-0.131-9.998c-0.593-6.067-1.68-11.036-2.542-15.736c-0.459-2.318-0.876-4.582-1.226-6.744l-0.275-1.648
			l-0.024-0.098c0.025-0.977-0.032,0.855-0.039,1.086l-0.01-0.222l-0.027-0.454l-0.049-0.894l-0.191-3.534
			c-0.195-0.341-0.046-2.958,1.672-5.291l1.485-1.91l1.992-1.975c1.229-1.326,3.044-2.676,4.526-3.996
			c6.557-5.328,13.55-10.743,19.162-16.366c2.888-2.717,5.405-5.635,7.825-8.273c2.236-2.864,4.495-5.392,6.284-8.032
			c1.785-2.643,3.525-5.024,4.963-7.348c1.357-2.355,2.607-4.518,3.735-6.476c2.251-3.874,3.55-7.172,4.642-9.28
			c1.023-2.144,1.567-3.286,1.567-3.286s-0.804,0.984-2.319,2.822c-1.569,1.794-3.564,4.62-6.631,7.778
			c-1.517,1.575-3.186,3.315-5.015,5.222c-1.873,1.825-4.053,3.65-6.275,5.653c-2.219,2.007-4.882,3.808-7.48,5.854
			c-2.793,1.847-5.61,3.857-8.792,5.639c-6.243,3.762-13.269,6.869-21.409,10.688c-2.095,1.099-4.109,1.922-6.389,3.327
			c-1.128,0.665-2.246,1.283-3.391,2.019c-1.182,0.871-2.361,1.757-3.553,2.638c-4.75,4.031-9.489,9.691-11.384,18.711l-0.686,3.564
			l-0.17,0.884l-0.081,0.439l-0.044,0.226l-0.054,1.43l-0.156,1.942c-0.212,2.631-0.368,5.191-0.491,7.723
			c-0.291,4.995-0.481,9.836-1.108,13.692c-0.65,3.867-1.731,6.56-3.169,8.717c-0.62,1.106-1.667,2.122-2.493,3.164
			c-1.225,1.064-2.058,2.113-3.557,3.218l-2.013,1.638l-2.355,1.646c-1.442,1.114-3.342,2.188-5.068,3.272
			c-1.697,1.12-3.555,2.031-5.329,2.995l-2.643,1.43l-3.347,1.708l-3.33,1.696l-1.665,0.843l-0.409,0.216
			c-0.131,0.077,0.76-0.518,0.328-0.238l-0.112,0.063l-0.232,0.119l-0.918,0.492c-1.262,0.667-2.515,1.333-3.773,2.002
			c0.07-0.485,0.138-0.973,0.211-1.453c0.193-1.548,0.44-3.054,0.559-4.626c0.032-1.584,0.071-3.178,0.11-4.791
			c0.171-3.147-0.256-6.389-0.667-9.58c-0.242-3.178-1.306-6.281-2.117-9.326l-0.651-2.259l-0.085-0.283
			c-0.044-0.235,0.03,0.16,0.042,0.218l-0.027-0.052l-0.044-0.111l-0.151-0.431l-0.336-0.872l-1.314-3.479l-0.652-1.738
			l-0.524-1.531l-1.074-3.062c-0.716-2.058-1.243-4.235-1.881-6.35c-0.483-2.102-1.021-4.223-1.396-6.297
			c-0.726-4.142-1.236-8.218-1.199-12.045c-0.007-3.828,0.347-7.473,1.191-10.717c0.708-3.32,2.044-6.123,3.335-8.643
			c0.773-1.151,1.433-2.341,2.199-3.306c0.801-0.932,1.49-1.889,2.229-2.623c0.759-0.736,1.44-1.394,2.028-1.969
			c0.623-0.551,1.199-0.952,1.646-1.31c0.928-0.715,1.421-1.095,1.421-1.095s-0.595,0.193-1.699,0.559
			c-0.546,0.198-1.262,0.395-2.058,0.715c-0.791,0.361-1.692,0.777-2.708,1.243c-1.025,0.48-2.043,1.194-3.237,1.895
			c-1.173,0.731-2.298,1.723-3.606,2.701c-2.347,2.192-5.017,4.892-7.168,8.355c-2.297,3.409-4.226,7.459-5.796,11.892
			c-1.616,4.438-2.695,9.256-3.54,14.287c-0.413,2.521-0.659,5.066-0.955,7.679c-0.141,2.583-0.396,5.192-0.422,7.902l-0.022,4.119
			l-0.002,2.08l0.039,1.858l0.076,3.718l-0.467,0.93L215,201.789v0.119v0.05c0-0.033,0.602,0.579,0.54,0.339l0.235,0.176
			l-0.04,1.373c-0.244,1.821-0.096,3.536-0.708,5.256c-0.446,1.699-0.719,3.323-1.517,4.924l-0.917,2.333
			c-0.376,0.77-0.853,1.526-1.25,2.267c-0.427,0.746-0.777,1.47-1.216,2.18c-0.089,0.128-0.176,0.253-0.267,0.38
			c-0.151-0.304-0.297-0.617-0.453-0.915c-5.787-10.913-13.563-18.505-21.072-25.194c-1.854-1.549-3.683-3.097-5.5-4.621
			c-1.91-1.612-3.232-2.807-4.653-4.209c-2.798-2.807-5.076-5.713-5.882-8.224c-0.962-2.418-0.542-5.124,0.894-8.421
			c1.416-3.219,3.588-6.52,5.602-9.721c4.148-6.398,7.894-12.633,10.577-18.378c2.705-5.752,4.497-10.962,5.742-15.284
			c1.189-4.352,1.9-7.789,2.302-10.145c0.386-2.367,0.586-3.617,0.586-3.617s-0.407,1.202-1.172,3.46
			c-0.769,2.245-2.038,5.497-3.86,9.494c-1.895,3.975-4.436,8.657-7.866,13.637c-3.452,5.007-7.825,10.149-12.962,15.783
			c-2.536,2.882-5.322,5.817-7.935,9.737c-1.318,1.936-2.539,4.274-3.379,6.975c-0.874,2.695-1.149,5.911-0.681,8.899
			c0.894,6.119,3.859,10.864,6.782,15.105c1.506,2.109,3.311,4.328,4.729,5.987c1.774,2.063,3.02,3.53,4.511,5.361
			c5.593,6.97,10.711,14.689,12.966,22.151c1.133,3.694,1.475,7.177,0.965,10.098c-0.435,2.958-1.668,5.468-3.55,7.99
			c-1.926,2.495-4.546,4.951-7.697,7.209c-1.59,1.129-3.32,2.257-4.861,3.106l-6.174,3.467
			c-10.552,6.041-19.446,13.854-26.875,21.956c-7.471,8.128-13.533,16.632-18.726,24.876c-5.166,8.262-9.436,16.299-13.035,23.805
			c-0.493,1.026-0.971,2.042-1.44,3.048c-34.288,41.004-46.37,98.672-26.699,152.474c29.329,80.258,118.164,121.522,198.419,92.187
			c23.433-8.565,43.538-22.212,59.538-39.232c7.715-3.908,15.868-8.642,23.955-14.705c8.463-6.331,16.887-14.032,24.296-23.172
			c7.366-9.204,13.582-19.863,17.869-31.159c1.157-2.792,1.931-5.721,2.868-8.564l0.171-0.533l0.083-0.271
			c0.242-0.61-0.288,0.674-0.225,0.505l0.032-0.119l0.259-0.868l0.495-1.752l1.006-3.5l1.009-3.532
			c0.342-1.208,0.674-2.358,0.981-3.188l1.851-5.628c2.791-7.6,6.328-15.022,10.503-20.225c4.238-5.229,8.723-8.724,15.603-10.182
			c3.35-0.843,7.232-1.1,11.414-1.172c2.19-0.012,4.341-0.022,6.464-0.034c1.15-0.021,2.3,0.038,3.436,0.029l1.717,0.039h0.107
			c1.047,1,1.091-0.035,1.013-0.039l0.19-0.07l0.391-0.063l0.781-0.113l1.555-0.229l0.772-0.106c0.234-0.025,0.83-0.164,1.22-0.25
			c1.739-0.401,3.491-0.894,5.054-1.479c1.311-0.677,2.604-1.385,3.84-2.104c1.191-0.747,2.148-1.648,3.171-2.467
			c3.777-3.437,6.289-6.986,8.316-10.165c4.094-6.432,7.272-11.824,10.878-16.243c3.558-4.376,7.319-7.636,10.662-10.112
			c3.428-2.302,6.329-3.983,8.42-4.849c2.076-0.965,3.182-1.484,3.182-1.484s-1.202,0.223-3.458,0.642
			c-2.3,0.328-5.571,1.238-9.736,2.722c-4.075,1.637-8.999,4.069-14.058,7.815c-5.031,3.692-10.154,8.811-15.291,13.61
			c-2.571,2.456-5.258,4.512-7.758,5.774c-0.633,0.215-1.226,0.598-1.814,0.732c-0.591,0.086-1.142,0.193-1.675,0.334
			c-0.391-0.081-0.646-0.177-0.91-0.129c-0.115,0-0.02,0.058-0.303,0.014l-0.781-0.078l-1.556-0.186
			c-3.704-0.927-7.517-1.878-11.413-2.844c-4.502-1.064-9.581-2.118-15.311-2.307c-5.649-0.354-11.99,0.395-18.11,2.263l-4.58,1.606
			c-0.709,0.264-1.378,0.579-2.04,0.908c0.43-0.896,0.875-1.807,1.469-2.554c0.4-0.602,0.793-1.22,1.191-1.833
			c0.396-0.652,0.962-1.069,1.432-1.648l1.513-1.719c0.54-0.543,1.191-0.942,1.797-1.452l1.877-1.541
			c0.676-0.474,1.455-0.793,2.192-1.226c1.486-0.822,3.005-1.779,4.807-2.243l2.637-0.916l1.342-0.481
			c0.535-0.151,1.135-0.267,1.695-0.397c2.28-0.515,4.547-1.029,6.799-1.541c4.521-1.036,8.977-2.057,13.285-3.045
			c4.312-0.979,8.501-2.014,12.474-3.044c3.94-0.938,7.749-2.144,11.172-3.13c1.731-0.556,3.392-1.206,4.944-1.753
			c1.556-0.517,3.01-1.166,4.353-1.837c2.729-1.167,4.902-2.583,6.663-3.717c1.774-1.089,2.963-2.255,3.852-2.887
			c0.86-0.689,1.319-1.05,1.319-1.05s-0.547,0.203-1.59,0.586c-1.048,0.322-2.483,1.032-4.448,1.499
			c-1.953,0.505-4.265,1.121-7.026,1.348c-1.348,0.2-2.787,0.349-4.356,0.346c-1.567,0.03-3.159,0.118-4.856,0.108
			c-3.473-0.142-7.102-0.17-11.098-0.506c-3.958-0.26-8.129-0.585-12.483-0.998c-4.36-0.413-8.862-0.831-13.438-1.258
			c-2.295-0.224-4.612-0.446-6.936-0.671c-0.589-0.051-1.15-0.32-1.766-0.337L430.274,355h-3.749c2.194,0,4.397-0.67,6.601-1.045
			l8.943-1.676c5.966-1.295,11.73-2.551,17.768-4.398c11.851-3.561,24.419-8.373,35.695-17.213
			c5.455-4.664,10.616-9.958,14.02-16.196c1.96-2.96,3.122-6.181,4.431-9.265c1.154-3.109,1.885-6.224,2.674-9.252
			c0.446-3.012,1.044-6.019,1.276-8.897c0.142-2.861,0.4-5.711,0.391-8.445c-0.071-2.749-0.142-5.481-0.21-8.171
			c-0.213-2.419-0.408-4.81-0.61-7.168c-0.911-9.94-2.363-18.952-3.836-27.147c-1.459-8.196-2.927-15.49-3.547-21.892
			c-0.659-6.401-0.305-11.943,0.93-16.394c1.228-4.436,2.903-7.827,4.199-10.012c1.357-2.205,2.076-3.37,2.076-3.37
			s-0.972,0.992-2.784,2.839c-1.78,1.895-4.25,4.888-6.635,9.316c-2.397,4.429-4.199,10.515-5.032,17.467
			c-0.886,6.944-1.069,14.668-1.455,22.86c-0.361,8.181-0.962,16.956-2.129,25.84c-0.337,2.341-0.659,4.717-0.994,7.129
			c-0.44,2.117-0.883,4.268-1.326,6.438c-0.488,2.18-1.203,4.238-1.774,6.373c-0.657,2.077-1.567,3.952-2.31,5.935
			c-3.579,7.591-8.625,12.426-15.222,15.529c-6.833,3.028-15.662,4.579-25.234,5.143c-4.692,0.354-9.824,0.312-14.685,0.26
			l-2.283-0.077c0.451-0.982,0.922-1.983,1.438-3.018c1.426-2.942,3.125-6.079,5.073-9.338c1.94-3.278,4.153-6.643,6.623-10.039
			c2.463-3.406,5.193-6.821,8.159-10.156c1.436-1.734,3.054-3.278,4.622-4.935l1.189-1.24l0.301-0.31l0.153-0.156l0.039-0.032
			c-0.046,0.024,0.516-0.383,0.298-0.231l0.083-0.086l0.659-0.666l2.654-2.649c1.682-1.635,3.718-3.83,5.623-5.896
			c1.977-2.024,3.613-4.265,5.336-6.364c1.673-2.172,3.223-4.503,4.697-6.781c1.367-2.435,2.773-4.709,3.804-7.272
			c1.187-2.405,1.951-5.024,2.717-7.478c0.548-2.561,1.187-4.998,1.314-7.439c0.561-4.839,0.075-9.291-0.477-13.21
			c-1.377-7.815-3.514-13.736-4.987-17.883c-1.504-4.127-2.415-6.453-2.415-6.453s0.198,2.5,0.427,6.85
			c0.212,4.33,0.476,10.612-0.403,17.641c-0.549,3.478-1.257,7.147-2.805,10.567c-0.605,1.769-1.689,3.38-2.578,5.038
			c-1.135,1.577-2.146,3.18-3.553,4.636c-1.206,1.523-2.825,2.885-4.282,4.292c-1.631,1.34-3.255,2.677-5.037,3.923
			c-1.845,1.206-3.596,2.549-5.507,3.563c-1.888,1.081-3.597,2.124-5.955,3.342l-3.311,1.775l-0.825,0.439l-0.101,0.052
			c-0.221,0.152,0.152-0.12,0.206-0.159l-0.056,0.029l-0.224,0.12l-0.447,0.242l-1.768,0.979c-2.356,1.323-4.785,2.567-7.031,4.031
			c-0.781,0.473-1.548,0.96-2.318,1.445c9.449-14.818,15.616-32.03,18.065-48.308c1.177-8.668,1.668-17.146,1.189-25.071
			c-0.1-4.008-0.601-7.805-0.984-11.567l-0.789-5.493l-0.1-0.688l-0.056-0.334c0.027-1.36-0.056,1.66-0.059,1.3l-0.015-0.147
			l-0.153-1.179l-0.313-2.344l-0.306-2.348c-0.092-0.735-0.1-0.708-0.183-1.105c-0.123-0.61-0.301-1.243-0.525-1.937l-0.007-2.966
			l-0.032-1.529l0.188-1.508L453.064,148.365z"/>
		<path fill="#EFC84A" d="M427.896,412.602c-1.028,0.146-2.485,0.543-4.336,1.206c-1.811,0.73-4.001,1.809-6.25,3.481
			c-2.238,1.633-4.521,3.915-6.799,6.047c-1.143,1.091-2.336,2.007-3.445,2.571c-0.288,0.098-0.547,0.261-0.815,0.321
			c-0.254,0.038-0.503,0.086-0.735,0.146c-0.18-0.034-0.287-0.071-0.412-0.056c-0.049,0.004-0.007,0.035-0.135,0.007l-0.344-0.037
			l-0.688-0.083c-1.65-0.405-3.343-0.831-5.081-1.26c-2-0.473-4.258-0.942-6.81-1.025c-2.512-0.164-5.324,0.176-8.049,1.006
			l-2.032,0.718c-0.686,0.246-1.281,0.604-1.929,0.913c-1.325,0.625-2.463,1.401-3.605,2.209c-1.904,1.385-3.576,2.9-5.099,4.493
			c0.526-2.968,0.742-5.953,0.504-8.879c-1.689-20.779-0.493-22.93,3.54-30.39c4.035-7.454,7.969-16.807,7.47-27.425
			c-0.034-1.263-0.071-2.509-0.097-3.752c-0.093-1.108-0.186-2.2-0.278-3.291c-0.425-4.556-1.087-8.688-1.766-12.456
			c-0.674-3.755-1.34-7.102-1.626-10.042c-0.298-2.937-0.136-5.478,0.428-7.522c0.564-2.036,1.33-3.59,1.929-4.591
			c0.617-1.016,0.952-1.549,0.952-1.549s-0.447,0.455-1.277,1.302c-0.817,0.867-1.953,2.236-3.046,4.279
			c-1.099,2.029-1.929,4.821-2.307,8.006c-0.403,3.191-0.491,6.734-0.667,10.497c-0.168,3.751-0.443,7.78-0.984,11.854
			c-0.144,1.08-0.3,2.17-0.457,3.272c-0.197,0.974-0.398,1.96-0.603,2.951c-0.228,1.008-0.555,1.946-0.816,2.933
			c-0.3,0.944-0.723,1.812-1.059,2.721c-1.644,3.479-3.96,5.694-6.98,7.127c-2.561,1.132-5.747,1.806-9.225,2.161
			c5.446-8.01,11.127-19.853,10.641-34.072c-0.806-23.469,5.444-42.732,7.966-56.382c0.244-1.148,0.459-2.293,0.63-3.428
			c0.581-4.249,0.817-8.413,0.588-12.297c-0.051-1.966-0.297-3.831-0.488-5.68l-0.384-2.693l-0.051-0.328l-0.027-0.172
			c0.012-0.665-0.027,0.814-0.027,0.641l-0.01-0.074l-0.075-0.574l-0.151-1.154l-0.154-1.155c-0.044-0.356-0.046-0.345-0.085-0.534
			c-0.065-0.303-0.151-0.616-0.256-0.958l-0.007-1.455l-0.01-0.75l0.088-0.742l0.168-1.509l0.35-1.481
			c0.168-1.039,0.591-1.949,0.938-2.94c1.519-3.854,4.206-7.268,7.471-9.807c0.759-0.723,1.682-1.179,2.515-1.775
			c0.425-0.283,0.842-0.576,1.274-0.842c0.454-0.219,0.908-0.454,1.343-0.669c0.913-0.426,1.775-0.928,2.668-1.288
			c0.929-0.331,1.821-0.656,2.688-0.96c3.535-1.169,6.877-1.823,9.665-2.121c2.803-0.45,5.032-0.377,6.572-0.458
			c1.553-0.056,2.378-0.083,2.378-0.083s-0.776-0.268-2.236-0.776c-1.481-0.47-3.618-1.378-6.506-1.98
			c-2.861-0.768-6.46-1.418-10.764-1.637c-1.094-0.027-2.209-0.049-3.372-0.079c-1.157,0.015-2.365,0.175-3.619,0.271
			c-0.625,0.063-1.26,0.13-1.912,0.19c-0.637,0.107-1.276,0.256-1.938,0.391c-1.298,0.328-2.71,0.488-4.063,1.005
			c-5.503,1.626-11.457,4.82-16.53,9.979c-1.229,1.313-2.542,2.638-3.611,4.189c-0.554,0.765-1.138,1.526-1.683,2.331
			c-0.488,0.845-0.979,1.686-1.469,2.538l-0.735,1.304l-0.613,1.377c-0.403,0.941-0.81,1.883-1.218,2.839
			c-0.344,1.128-0.684,2.305-1.001,3.484c-0.227,0.938-0.461,1.882-0.688,2.821l-0.276,1.134l-0.129,0.566l-0.022,0.076
			c-0.008-0.139-0.041,1.394-0.034,0.776l-0.024,0.12l-0.056,0.247l-0.466,1.908c-0.356,1.239-0.659,2.498-1.108,3.635
			c-0.781,2.361-1.865,4.422-2.988,6.316c-2.41,3.711-5.222,6.472-8.748,8.594c-2.303,1.411-4.926,2.602-7.696,3.611
			c-11.561,3.491-25.956-0.41-50.196-1.462c-12.759-0.556-24.185,3.414-32.952,7.997c0.834-1.263,1.814-2.547,2.961-3.839
			c0.483-0.608,1.038-1.204,1.646-1.787c0.591-0.589,1.138-1.217,1.792-1.795c0.657-0.589,1.307-1.179,1.97-1.774l0.25-0.228
			l0.051-0.051l0.039-0.025c-0.148,0.094,0.237-0.166,0.21-0.156l0.142-0.117l0.579-0.508l1.151-0.996l1.162-1l1.37-1.241
			c0.903-0.834,1.819-1.646,2.657-2.549c0.856-0.894,1.708-1.72,2.539-2.762l1.24-1.478c0.405-0.528,0.803-1.112,1.198-1.667
			c0.804-1.058,1.514-2.411,2.202-3.65c0.625-1.389,1.24-2.754,1.611-4.265c0.831-2.974,0.916-5.978,0.682-8.442
			c-0.236-2.489-0.688-4.513-1.037-6.442c-0.186-0.945-0.356-1.864-0.496-2.755l-0.12-0.668l-0.007-0.044
			c0.007-0.455-0.018,0.568-0.018,0.446l-0.004-0.098l-0.008-0.183l-0.022-0.369l-0.075-1.436c-0.085-0.149-0.022-1.213,0.679-2.17
			l0.605-0.777l0.815-0.805c0.508-0.545,1.248-1.094,1.851-1.638c2.681-2.181,5.542-4.395,7.834-6.692
			c1.184-1.108,2.209-2.302,3.201-3.386c0.916-1.157,1.836-2.195,2.571-3.274c0.73-1.083,1.441-2.056,2.029-3.007
			c0.552-0.961,1.064-1.846,1.519-2.647c0.923-1.582,1.453-2.932,1.901-3.792c0.418-0.878,0.641-1.339,0.641-1.339
			s-0.328,0.398-0.945,1.152c-0.64,0.727-1.458,1.888-2.71,3.176c-0.625,0.648-1.301,1.362-2.05,2.131
			c-0.767,0.751-1.661,1.493-2.567,2.319c-0.905,0.818-1.999,1.549-3.062,2.391c-1.137,0.748-2.292,1.574-3.586,2.302
			c-2.559,1.541-5.427,2.815-8.757,4.367c-0.857,0.451-1.674,0.79-2.609,1.362c-0.462,0.275-0.916,0.524-1.389,0.828
			c-0.479,0.36-0.967,0.722-1.451,1.074c-1.938,1.651-3.879,3.968-4.656,7.653l-0.283,1.458l-0.068,0.361l-0.029,0.178l-0.017,0.091
			l-0.027,0.588l-0.056,0.794c-0.088,1.079-0.151,2.122-0.206,3.154c-0.114,2.044-0.2,4.023-0.456,5.599
			c-0.257,1.578-0.703,2.68-1.291,3.569c-0.254,0.447-0.689,0.859-1.023,1.289c-0.493,0.436-0.83,0.862-1.448,1.316l-0.82,0.672
			l-0.972,0.674c-0.581,0.456-1.358,0.891-2.065,1.335c-0.696,0.461-1.456,0.83-2.186,1.223l-1.074,0.589l-1.367,0.695l-1.362,0.693
			l-0.684,0.342l-0.168,0.09c-0.049,0.033,0.312-0.21,0.132-0.1l-0.04,0.03l-0.095,0.048l-0.376,0.195
			c-1.006,0.537-2.002,1.065-2.998,1.602c-1.001,0.52-1.967,1.159-2.946,1.734c-0.981,0.578-1.946,1.211-2.889,1.887
			c-3.796,2.588-7.417,5.663-10.477,9.209c-3.075,3.508-5.568,7.405-7.412,11.171c-0.859,1.757-1.547,3.453-2.142,5.085
			c-0.192,0.014-0.385,0.034-0.578,0.049c-0.239-0.529-0.477-1.062-0.737-1.56c-3.457-6.528-8.11-11.062-12.602-15.071
			c-1.101-0.925-2.215-1.853-3.293-2.765c-1.138-0.968-1.936-1.679-2.781-2.516c-1.682-1.68-3.045-3.413-3.523-4.917
			c-0.579-1.455-0.321-3.066,0.535-5.039c0.852-1.929,2.144-3.903,3.357-5.813c2.48-3.834,4.716-7.556,6.328-10.999
			c1.616-3.44,2.688-6.557,3.436-9.145c0.703-2.601,1.135-4.655,1.367-6.067c0.242-1.414,0.357-2.166,0.357-2.166
			s-0.242,0.722-0.703,2.071c-0.459,1.35-1.211,3.293-2.305,5.678c-1.136,2.378-2.657,5.182-4.705,8.162
			c-2.068,2.993-4.683,6.074-7.756,9.443c-1.514,1.718-3.18,3.476-4.749,5.82c-0.786,1.162-1.516,2.561-2.023,4.173
			c-0.522,1.618-0.687,3.547-0.398,5.322c0.505,3.485,2.128,6.21,3.789,8.651c2.398,5.489-1.53,13.912-7.087,17.343
			c-4.58,2.832-22.815,10.856-35.275,25.313c-46.467,34.44-66.868,96.532-46.003,153.604
			c25.397,69.506,102.326,105.241,171.831,79.841c34.152-12.481,60.146-37.417,74.742-67.799c0.978-0.438,1.969-0.899,2.984-1.401
			c3.581-1.78,7.373-3.967,11.145-6.79c3.763-2.806,7.503-6.238,10.801-10.298c3.274-4.094,6.041-8.836,7.942-13.853
			c0.518-1.248,0.866-2.547,1.279-3.811l0.07-0.242l0.046-0.115c0.103-0.269-0.126,0.301-0.104,0.222l0.014-0.051l0.115-0.389
			l0.22-0.781l0.451-1.555l0.447-1.568c0.151-0.536,0.298-1.049,0.435-1.412l0.823-2.506c1.243-3.376,2.813-6.677,4.667-8.992
			c1.883-2.319,3.882-3.879,6.937-4.531c1.494-0.371,3.222-0.491,5.078-0.52c0.975-0.005,1.931-0.012,2.871-0.012
			c0.518-0.01,1.026-0.015,1.539-0.017l0.751-0.015l0.049,0.002c0.46,0.017,0.484,0.015,0.451,0.012l0.088-0.019l0.171-0.018
			l0.347-0.048l0.696-0.093l0.347-0.054c0.095-0.014,0.361-0.073,0.532-0.111c0.776-0.18,1.548-0.395,2.246-0.656
			c0.593-0.3,1.167-0.617,1.709-0.938c0.537-0.327,0.959-0.73,1.411-1.093c1.677-1.531,2.797-3.108,3.698-4.522
			c1.824-2.859,3.233-5.261,4.837-7.217c1.579-1.95,3.254-3.404,4.741-4.501c1.521-1.024,2.813-1.775,3.741-2.154
			c0.925-0.433,1.421-0.667,1.421-0.667S428.894,412.415,427.896,412.602z"/>
		<path fill="#5D5D5D" d="M219.551,492.659c22.751,0,42.212,13.965,50.349,33.78l8.814-28.25l-15.447-15.449l-39.258-10.304
			l-23.799,0.709l-17.056,6.755l-10.835,17.583l-8.879,15.45l5.7,13.705C177.222,506.724,196.727,492.659,219.551,492.659z"/>
		<path fill="#797A7A" d="M297.103,296.004l-55.706,6.997l-122.471,88.092l13.965,135.897l36.321-0.127v-0.019
			c0-27.806,22.544-50.349,50.339-50.349c27.693,0,50.151,22.367,50.327,50.009l16.638-0.051l70.904-160.069l-23.354-41.581
			L297.103,296.004z"/>
		<polygon fill="#A3A6A6" points="334.066,324.803 286.516,526.453 357.42,366.383 		"/>
		<polygon fill="#A3A6A6" points="297.103,296.004 132.891,526.99 118.926,391.093 241.397,303.001 		"/>
		<path fill="#5D5D5D" d="M218.204,388.971c0,14.616-11.843,26.455-26.452,26.455c-14.614,0-26.462-11.839-26.462-26.455
			c0-14.608,11.848-26.453,26.462-26.453C206.361,362.518,218.204,374.363,218.204,388.971z"/>
		<path fill="#6E6E6E" d="M181.397,377.756c-5.723,0-11.001,1.831-15.323,4.91c-0.495,2.024-0.786,4.128-0.786,6.305
			c0,14.616,11.848,26.455,26.462,26.455c5.71,0,10.988-1.827,15.308-4.913c0.5-2.015,0.786-4.119,0.786-6.301
			C207.845,389.604,196.006,377.756,181.397,377.756z"/>
		<path fill="#5D5D5D" d="M217.064,434.892c0,8.036-6.507,14.55-14.544,14.55c-8.044,0-14.558-6.514-14.558-14.55
			c0-8.038,6.514-14.552,14.558-14.552C210.557,420.339,217.064,426.854,217.064,434.892z"/>
		<path fill="#6E6E6E" d="M196.822,428.721c-3.146,0-6.045,1.008-8.428,2.702c-0.264,1.112-0.432,2.273-0.432,3.468
			c0,8.036,6.514,14.55,14.558,14.55c3.138,0,6.047-1.006,8.418-2.695c0.276-1.116,0.442-2.278,0.442-3.472
			C211.38,435.237,204.859,428.721,196.822,428.721z"/>
		<path fill="#6E6E6E" d="M335.326,381.501c0,9.063-7.347,16.409-16.409,16.409c-9.06,0-16.406-7.347-16.406-16.409
			c0-9.066,7.346-16.405,16.406-16.405C327.979,365.096,335.326,372.435,335.326,381.501z"/>
		<path fill="#5D5D5D" d="M312.495,374.546c-3.54,0-6.811,1.13-9.494,3.051c-0.315,1.247-0.491,2.546-0.491,3.904
			c0,9.063,7.346,16.409,16.406,16.409c3.542,0,6.814-1.138,9.502-3.06c0.3-1.25,0.481-2.545,0.481-3.896
			C328.899,381.893,321.555,374.546,312.495,374.546z"/>
		<path fill="#6E6E6E" d="M304.673,400.763c0,4.299-3.489,7.79-7.798,7.79c-4.292,0-7.791-3.491-7.791-7.79
			c0-4.302,3.499-7.793,7.791-7.793C301.185,392.969,304.673,396.46,304.673,400.763z"/>
		<path fill="#5D5D5D" d="M293.826,397.454c-1.677,0-3.225,0.539-4.502,1.45c-0.153,0.6-0.239,1.211-0.239,1.858
			c0,4.299,3.499,7.79,7.791,7.79c1.689,0,3.242-0.537,4.515-1.448c0.139-0.6,0.227-1.212,0.227-1.853
			C301.617,400.945,298.13,397.454,293.826,397.454z"/>
	</g>
</g>
<g id="GPS">
</g>
<g id="wallet">
</g>
<g id="safe">
</g>
<g id="pencil">
</g>
<g id="satelite">
</g>
<g id="coins">
</g>
<g id="guitar2">
</g>
<g id="tent">
</g>
<g id="boombox">
</g>
<g id="headphonehq">
</g>
<g id="clock">
</g>
<g id="gamepad">
</g>
</svg>
