<?xml version="1.0" encoding="utf-8"?>
<!-- Generator: Adobe Illustrator 16.2.0, SVG Export Plug-In . SVG Version: 6.00 Build 0)  -->
<!DOCTYPE svg PUBLIC "-//W3C//DTD SVG 1.1//EN" "http://www.w3.org/Graphics/SVG/1.1/DTD/svg11.dtd">
<svg version="1.1" xmlns="http://www.w3.org/2000/svg" xmlns:xlink="http://www.w3.org/1999/xlink" x="0px" y="0px" width="640px"
	 height="640px" viewBox="0 0 640 640" enable-background="new 0 0 640 640" xml:space="preserve">
<symbol  id="minus" viewBox="-86 -30 171 60">
	<path fill="#EFC84A" d="M85,9.893C85,20.825,76.496,30,65.56,30H-66.437C-77.373,30-86,20.825-86,9.893V-1H85V9.893z"/>
	<path fill="#D9B543" d="M-86-1v-9.568C-86-21.505-77.373-30-66.437-30H65.56C76.496-30,85-21.505,85-10.568V-1H-86z"/>
	<polygon display="none" fill="none" points="-86,30 85,30 85,-30 -86,-30 	"/>
</symbol>
<symbol  id="plus" viewBox="-71 -70.935 142 141.869">
	<path fill="#F76451" d="M70.923,0l0.013,8.721c0.013,9.002-7.373,16.609-16.375,16.623l-30.409,0.099l0.043,29.603
		c0.013,9-6.849,15.838-15.849,15.852L0,70.923V0H70.923z"/>
	<path fill="#E05B49" d="M0,70.923l-8.53,0.012c-9.002,0.014-17.017-6.787-17.03-15.787l0.011-29.576l-28.924,0.041
		c-9,0.014-16.438-7.68-16.45-16.682l0-8.93H0V70.923z"/>
	<path fill="#CC5343" d="M-70.923,0l-0.012-7.945c-0.013-9,7.416-16.184,16.416-16.198l28.951,0.013l-0.044-29.758
		c-0.013-9.002,7.871-17.023,16.874-17.037L0-70.924V0H-70.923z"/>
	<path fill="#D45644" d="M0,0v-70.924l8.137-0.011c9-0.014,15.775,7.998,15.788,17.002l0.099,29.783l30.437-0.045
		c9.003-0.014,16.424,7.041,16.438,16.039L70.923,0H0z"/>
	<polygon display="none" fill="none" points="-71,70 71,70 71,-70 -71,-70 	"/>
</symbol>
<pattern  x="2196" y="5765" width="72" height="72" patternUnits="userSpaceOnUse" id="Grid_1_pica_Lines" viewBox="72.25 -144.25 72 72" overflow="visible">
	<g>
		<polygon fill="none" points="72.25,-144.25 144.25,-144.25 144.25,-72.25 72.25,-72.25 		"/>
		<g>
			<line fill="none" stroke="#231F20" stroke-width="0.3" x1="78.25" y1="-72.5" x2="78.25" y2="0"/>
			<line fill="none" stroke="#231F20" stroke-width="0.3" x1="102.25" y1="-72.5" x2="102.25" y2="0"/>
			<line fill="none" stroke="#231F20" stroke-width="0.3" x1="126.25" y1="-72.5" x2="126.25" y2="0"/>
			<line fill="none" stroke="#231F20" stroke-width="0.3" x1="90.25" y1="-72.5" x2="90.25" y2="0"/>
			<line fill="none" stroke="#231F20" stroke-width="0.3" x1="114.25" y1="-72.5" x2="114.25" y2="0"/>
			<line fill="none" stroke="#231F20" stroke-width="0.3" x1="138.25" y1="-72.5" x2="138.25" y2="0"/>
		</g>
		<g>
			<line fill="none" stroke="#231F20" stroke-width="0.3" x1="144" y1="-78.25" x2="216.5" y2="-78.25"/>
			<line fill="none" stroke="#231F20" stroke-width="0.3" x1="144" y1="-102.25" x2="216.5" y2="-102.25"/>
			<line fill="none" stroke="#231F20" stroke-width="0.3" x1="144" y1="-126.25" x2="216.5" y2="-126.25"/>
			<line fill="none" stroke="#231F20" stroke-width="0.3" x1="144" y1="-90.25" x2="216.5" y2="-90.25"/>
			<line fill="none" stroke="#231F20" stroke-width="0.3" x1="144" y1="-114.25" x2="216.5" y2="-114.25"/>
			<line fill="none" stroke="#231F20" stroke-width="0.3" x1="144" y1="-138.25" x2="216.5" y2="-138.25"/>
		</g>
		<g>
			<line fill="none" stroke="#231F20" stroke-width="0.3" x1="78.25" y1="-144.5" x2="78.25" y2="-72"/>
			<line fill="none" stroke="#231F20" stroke-width="0.3" x1="102.25" y1="-144.5" x2="102.25" y2="-72"/>
			<line fill="none" stroke="#231F20" stroke-width="0.3" x1="126.25" y1="-144.5" x2="126.25" y2="-72"/>
			<line fill="none" stroke="#231F20" stroke-width="0.3" x1="72" y1="-78.25" x2="144.5" y2="-78.25"/>
			<line fill="none" stroke="#231F20" stroke-width="0.3" x1="72" y1="-102.25" x2="144.5" y2="-102.25"/>
			<line fill="none" stroke="#231F20" stroke-width="0.3" x1="72" y1="-126.25" x2="144.5" y2="-126.25"/>
			<line fill="none" stroke="#231F20" stroke-width="0.3" x1="72" y1="-90.25" x2="144.5" y2="-90.25"/>
			<line fill="none" stroke="#231F20" stroke-width="0.3" x1="72" y1="-114.25" x2="144.5" y2="-114.25"/>
			<line fill="none" stroke="#231F20" stroke-width="0.3" x1="72" y1="-138.25" x2="144.5" y2="-138.25"/>
			<line fill="none" stroke="#231F20" stroke-width="0.3" x1="90.25" y1="-144.5" x2="90.25" y2="-72"/>
			<line fill="none" stroke="#231F20" stroke-width="0.3" x1="114.25" y1="-144.5" x2="114.25" y2="-72"/>
			<line fill="none" stroke="#231F20" stroke-width="0.3" x1="138.25" y1="-144.5" x2="138.25" y2="-72"/>
		</g>
		<g>
			<line fill="none" stroke="#231F20" stroke-width="0.3" x1="0" y1="-78.25" x2="72.5" y2="-78.25"/>
			<line fill="none" stroke="#231F20" stroke-width="0.3" x1="0" y1="-102.25" x2="72.5" y2="-102.25"/>
			<line fill="none" stroke="#231F20" stroke-width="0.3" x1="0" y1="-126.25" x2="72.5" y2="-126.25"/>
			<line fill="none" stroke="#231F20" stroke-width="0.3" x1="0" y1="-90.25" x2="72.5" y2="-90.25"/>
			<line fill="none" stroke="#231F20" stroke-width="0.3" x1="0" y1="-114.25" x2="72.5" y2="-114.25"/>
			<line fill="none" stroke="#231F20" stroke-width="0.3" x1="0" y1="-138.25" x2="72.5" y2="-138.25"/>
		</g>
		<g>
			<line fill="none" stroke="#231F20" stroke-width="0.3" x1="78.25" y1="-216.5" x2="78.25" y2="-144"/>
			<line fill="none" stroke="#231F20" stroke-width="0.3" x1="102.25" y1="-216.5" x2="102.25" y2="-144"/>
			<line fill="none" stroke="#231F20" stroke-width="0.3" x1="126.25" y1="-216.5" x2="126.25" y2="-144"/>
			<line fill="none" stroke="#231F20" stroke-width="0.3" x1="90.25" y1="-216.5" x2="90.25" y2="-144"/>
			<line fill="none" stroke="#231F20" stroke-width="0.3" x1="114.25" y1="-216.5" x2="114.25" y2="-144"/>
			<line fill="none" stroke="#231F20" stroke-width="0.3" x1="138.25" y1="-216.5" x2="138.25" y2="-144"/>
		</g>
	</g>
</pattern>
<pattern  x="2196" y="5765" width="30" height="30" patternUnits="userSpaceOnUse" id="New_Pattern_Swatch_2" viewBox="0 -30 30 30" overflow="visible">
	<g>
		<polygon fill="none" points="0,0 30,0 30,-30 0,-30 		"/>
		<g>
			<polygon fill="#B0B3B3" points="30,-30 22.929,-30 0,-7.071 0,0 7.071,0 30,-22.929 			"/>
			<polygon fill="#B0B3B3" points="30,-7.071 22.929,0 30,0 			"/>
			<polygon fill="#B0B3B3" points="0,-30 0,-22.929 7.071,-30 			"/>
		</g>
	</g>
</pattern>
<g id="Layer_166">
</g>
<g id="vespa">
</g>
<g id="circus_1_">
</g>
<g id="lcdtv">
</g>
<g id="retrotv_1_">
</g>
<g id="submarine">
</g>
<g id="circus">
</g>
<g id="cabin">
</g>
<g id="cake">
</g>
<g id="beer">
</g>
<g id="UFO">
</g>
<g id="meteor">
</g>
<g id="GPS">
	<g>
		<path fill="#EFC84A" d="M541.846,420.972l-7.593-180.102c-2.455,0.614-5.007,0.976-7.653,0.976
			c-17.365,0-31.441-14.079-31.441-31.442c0-0.027,0.002-0.049,0.002-0.076c-17.863-0.777-32.498-13.907-35.579-31.077
			c-4.2,2.822-9.245,4.475-14.685,4.475c-10.767,0-20.011-6.447-24.136-15.679H224.634l-1.741,13.533l-0.965-13.533h-28.35
			l-4.034,19.966l-1.051-19.966h-78.369l-7.62,97.808l15.342,2.192l-15.684,2.188l-7.352,94.358l28.274,5.403l-28.889,2.476
			L86.27,474.217h134.257l2.605-20.85l3.292,20.85h96.834l4.682-48.958l4.08,48.958h191.349L541.846,420.972z"/>
		<path fill="#2893C0" d="M155.732,239.98c0-12.921,10.479-23.398,23.401-23.398s23.401,10.477,23.401,23.398
			c0,12.925-10.479,23.412-23.401,23.412S155.732,252.905,155.732,239.98z"/>
		<path fill="#E8E8E8" d="M164.591,239.98c0-8.026,6.51-14.539,14.542-14.539c8.032,0,14.543,6.513,14.543,14.539
			c0,8.027-6.511,14.548-14.543,14.548C171.101,254.529,164.591,248.008,164.591,239.98z"/>
		<path fill="#E45136" d="M273.29,459.827c-5.849,0-11.655-0.207-17.251-0.618c-1.175-0.085-2.057-1.106-1.969-2.277
			c0.085-1.18,1.062-2.092,2.282-1.976c6.816,0.5,13.888,0.674,21.114,0.577c1.233-0.076,2.146,0.917,2.162,2.094
			c0.017,1.18-0.921,2.151-2.098,2.166C276.105,459.817,274.692,459.827,273.29,459.827z M298.773,458.597
			c-1.087,0-2.018-0.829-2.119-1.934c-0.109-1.174,0.75-2.209,1.923-2.322c6.855-0.646,13.918-1.56,20.991-2.717
			c1.157-0.2,2.257,0.596,2.449,1.758c0.188,1.16-0.597,2.263-1.763,2.449c-7.168,1.177-14.326,2.103-21.276,2.756
			C298.907,458.591,298.84,458.597,298.773,458.597z M235.059,456.548c-0.129,0-0.256-0.014-0.39-0.034
			c-7.333-1.348-14.374-3.116-20.934-5.254c-1.118-0.368-1.73-1.572-1.365-2.691c0.366-1.12,1.564-1.724,2.688-1.366
			c6.379,2.086,13.237,3.808,20.381,5.114c1.157,0.212,1.924,1.323,1.711,2.483C236.964,455.825,236.067,456.548,235.059,456.548z
			 M340.832,451.77c-0.974,0-1.853-0.671-2.077-1.66c-0.261-1.15,0.459-2.29,1.607-2.551c6.745-1.528,13.652-3.301,20.537-5.261
			c1.14-0.327,2.311,0.334,2.634,1.466c0.325,1.132-0.333,2.312-1.464,2.631c-6.958,1.987-13.942,3.779-20.761,5.322
			C341.147,451.755,340.989,451.77,340.832,451.77z M194.783,443.079c-0.339,0-0.682-0.083-1.002-0.256
			c-6.744-3.606-12.77-7.769-17.904-12.375c-0.881-0.782-0.953-2.129-0.168-3.009c0.79-0.878,2.139-0.951,3.011-0.163
			c4.884,4.377,10.629,8.345,17.072,11.792c1.04,0.554,1.431,1.846,0.874,2.881C196.279,442.669,195.544,443.079,194.783,443.079z
			 M381.82,440.1c-0.887,0-1.715-0.557-2.018-1.448c-0.381-1.108,0.215-2.322,1.329-2.705c6.559-2.234,13.258-4.7,19.911-7.324
			c1.098-0.439,2.334,0.105,2.766,1.202c0.432,1.095-0.104,2.333-1.199,2.76c-6.716,2.654-13.479,5.142-20.1,7.4
			C382.28,440.063,382.048,440.1,381.82,440.1z M421.479,424.485c-0.818,0-1.596-0.468-1.949-1.263
			c-0.483-1.076,0.001-2.334,1.077-2.817c5.756-2.563,11.572-5.288,17.283-8.095c1.06-0.511,2.332-0.079,2.852,0.977
			c0.519,1.057,0.083,2.336-0.974,2.854c-5.757,2.825-11.618,5.572-17.424,8.162C422.063,424.429,421.768,424.485,421.479,424.485z
			 M163.885,414.57c-0.745,0-1.468-0.387-1.858-1.084c-3.343-5.906-5.596-12.231-6.704-18.799l-0.312-2.014
			c-0.167-1.165,0.641-2.244,1.809-2.414c1.167-0.157,2.245,0.646,2.412,1.809l0.296,1.918c1.025,6.072,3.114,11.929,6.208,17.4
			c0.58,1.023,0.221,2.322-0.806,2.908C164.601,414.48,164.24,414.57,163.885,414.57z M157.26,373.284
			c-0.12,0-0.24-0.01-0.362-0.027c-1.161-0.2-1.941-1.303-1.742-2.463c1.248-7.316,3.774-14.253,7.507-20.613
			c0.593-1.02,1.902-1.348,2.916-0.762c1.016,0.599,1.357,1.902,0.761,2.917c-3.471,5.918-5.819,12.368-6.983,19.176
			C159.182,372.549,158.279,373.284,157.26,373.284z M424.024,344.8c-1.117,0-2.052-0.864-2.125-1.995
			c-0.076-1.174,0.815-2.189,1.989-2.263c7.369-0.474,14.344-1.467,20.739-2.952c1.142-0.268,2.294,0.448,2.559,1.593
			c0.266,1.149-0.447,2.296-1.593,2.561c-6.624,1.538-13.833,2.563-21.428,3.051C424.116,344.8,424.069,344.8,424.024,344.8z
			 M402.718,344.8c-0.042,0-0.084,0-0.125-0.005c-6.942-0.4-14.141-1.194-21.391-2.349c-1.166-0.186-1.956-1.277-1.769-2.441
			c0.184-1.152,1.261-1.95,2.439-1.77c7.112,1.131,14.168,1.912,20.97,2.307c1.174,0.066,2.07,1.08,2.002,2.251
			C404.779,343.923,403.839,344.8,402.718,344.8z M360.665,338.182c-0.173,0-0.348-0.022-0.523-0.064
			c-6.912-1.741-13.843-3.791-20.603-6.113c-1.114-0.376-1.706-1.589-1.326-2.708c0.384-1.113,1.593-1.711,2.71-1.321
			c6.647,2.274,13.463,4.294,20.259,6.004c1.141,0.286,1.835,1.447,1.547,2.587C362.486,337.535,361.619,338.182,360.665,338.182z
			 M178.145,337.146c-0.596,0-1.187-0.249-1.609-0.732c-0.772-0.887-0.68-2.237,0.21-3.008c5.239-4.551,11.347-8.604,18.159-12.037
			c1.052-0.527,2.332-0.107,2.861,0.945c0.531,1.05,0.109,2.334-0.942,2.864c-6.494,3.271-12.31,7.124-17.28,11.442
			C179.141,336.975,178.642,337.146,178.145,337.146z M465.15,334.688c-0.776,0-1.525-0.425-1.901-1.165
			c-0.534-1.049-0.116-2.334,0.934-2.866c6.519-3.318,12.016-7.429,16.345-12.224c0.791-0.869,2.136-0.933,3.01-0.151
			c0.876,0.786,0.945,2.136,0.155,3.01c-4.679,5.186-10.591,9.609-17.579,13.162C465.803,334.612,465.476,334.688,465.15,334.688z
			 M320.338,324.451c-0.259,0-0.522-0.044-0.774-0.144c-6.475-2.527-13.219-4.692-20.04-6.445c-1.141-0.291-1.826-1.453-1.536-2.594
			c0.294-1.139,1.466-1.833,2.595-1.54c6.989,1.794,13.896,4.021,20.528,6.606c1.097,0.431,1.64,1.666,1.212,2.759
			C321.995,323.936,321.189,324.451,320.338,324.451z M215.726,317.75c-0.93,0-1.783-0.615-2.05-1.548
			c-0.321-1.136,0.336-2.312,1.468-2.637c6.731-1.912,13.865-3.341,21.204-4.253c1.167-0.193,2.235,0.688,2.377,1.854
			c0.147,1.171-0.683,2.233-1.853,2.377c-7.124,0.881-14.043,2.275-20.563,4.128C216.113,317.723,215.918,317.75,215.726,317.75z
			 M279.137,313.877c-0.094,0-0.187-0.007-0.283-0.017c-6.995-0.935-14.059-1.433-20.991-1.497c-1.178-0.012-2.123-0.972-2.113-2.15
			c0.009-1.17,0.964-2.112,2.131-2.112c0.005,0,0.012,0,0.02,0c7.108,0.062,14.346,0.58,21.516,1.525
			c1.167,0.162,1.989,1.231,1.832,2.398C281.107,313.096,280.19,313.877,279.137,313.877z M492.475,303.606
			c-0.203,0-0.412-0.029-0.618-0.092c-1.126-0.345-1.763-1.534-1.422-2.659c1.523-5.032,2.297-10.555,2.297-16.414
			c-0.002-1.279-0.038-2.59-0.11-3.92c-0.066-1.175,0.833-2.183,2.009-2.246c1.128-0.127,2.183,0.837,2.244,2.014
			c0.078,1.406,0.117,2.789,0.12,4.151c0,6.281-0.833,12.221-2.478,17.648C494.235,303.013,493.391,303.606,492.475,303.606z
			 M491.395,261.526c-0.956,0-1.824-0.647-2.066-1.612c-1.761-7.019-4.141-13.604-7.068-19.564c-0.518-1.059-0.083-2.338,0.977-2.86
			c1.055-0.511,2.333-0.078,2.851,0.974c3.06,6.235,5.542,13.103,7.376,20.407c0.287,1.147-0.405,2.305-1.548,2.59
			C491.743,261.504,491.567,261.526,491.395,261.526z M209.3,226.626c-0.876,0-1.697-0.546-2.01-1.418
			c-0.392-1.107,0.187-2.324,1.294-2.725c0.811-0.29,1.995-0.725,3.526-1.294c3.686-1.367,9.35-3.468,16.576-5.988
			c1.113-0.378,2.328,0.198,2.715,1.314c0.387,1.113-0.199,2.321-1.312,2.717c-7.192,2.5-12.829,4.598-16.499,5.954
			c-1.552,0.576-2.755,1.023-3.574,1.313C209.779,226.585,209.537,226.626,209.3,226.626z M472.519,223.787
			c-0.598,0-1.195-0.254-1.616-0.745c-4.456-5.175-9.646-9.817-15.425-13.789c-0.972-0.667-1.217-1.995-0.55-2.964
			c0.665-0.961,1.998-1.213,2.965-0.549c6.083,4.18,11.548,9.063,16.242,14.522c0.768,0.891,0.669,2.241-0.224,3.007
			C473.51,223.616,473.015,223.787,472.519,223.787z M249.65,212.645c-0.907,0-1.747-0.586-2.033-1.497
			c-0.352-1.125,0.272-2.318,1.396-2.672c6.917-2.168,13.823-4.212,20.527-6.075c1.118-0.315,2.313,0.347,2.627,1.482
			c0.313,1.133-0.35,2.312-1.486,2.625c-6.66,1.853-13.519,3.884-20.394,6.041C250.078,212.612,249.862,212.645,249.65,212.645z
			 M290.768,201.241c-0.964,0-1.838-0.66-2.075-1.639c-0.271-1.147,0.435-2.292,1.58-2.568c7.108-1.702,14.152-3.23,20.936-4.556
			c1.15-0.22,2.276,0.532,2.501,1.687c0.226,1.157-0.528,2.278-1.685,2.5c-6.727,1.311-13.709,2.83-20.76,4.515
			C291.096,201.221,290.931,201.241,290.768,201.241z M437.898,199.666c-0.264,0-0.532-0.051-0.792-0.156
			c-6.145-2.463-12.886-4.497-20.039-6.04c-1.15-0.247-1.881-1.382-1.634-2.532c0.25-1.15,1.399-1.887,2.534-1.632
			c7.389,1.591,14.361,3.698,20.726,6.252c1.093,0.435,1.623,1.677,1.185,2.773C439.543,199.163,438.743,199.666,437.898,199.666z
			 M332.629,193.123c-1.044,0-1.956-0.764-2.107-1.829c-0.168-1.165,0.64-2.244,1.804-2.415c7.3-1.054,14.474-1.88,21.321-2.456
			c1.154-0.046,2.205,0.769,2.303,1.946c0.102,1.172-0.772,2.205-1.945,2.299c-6.765,0.574-13.853,1.39-21.069,2.434
			C332.834,193.116,332.729,193.123,332.629,193.123z M396.44,190.42c-0.063,0-0.124-0.002-0.188-0.007
			c-5.926-0.513-12.22-0.773-18.707-0.773l-2.387,0.007c-0.008,0-0.018,0-0.024,0c-1.168,0-2.119-0.942-2.132-2.109
			c-0.011-1.177,0.933-2.142,2.111-2.154l2.442-0.01c6.599,0,13.016,0.269,19.066,0.793c1.173,0.1,2.042,1.136,1.94,2.308
			C398.464,189.583,397.534,190.42,396.44,190.42z"/>
		<polygon fill="#E45136" points="479.152,385.613 460.691,404.072 442.222,385.613 434.875,392.957 453.339,411.429 
			434.875,429.888 442.222,437.244 460.691,418.774 479.152,437.244 486.506,429.888 468.037,411.429 486.506,392.957 		"/>
		<path fill="#E27C3E" d="M472.29,273.765c2.532-26.575-13.816-52.881-49.546-54.311c-35.73-1.429-66.22,11.911-96.709,7.146
			c-30.491-4.765-105.762-3.813-105.762,27.154c0,30.967,55.738,37.637,76.7,20.01c20.962-17.627,60.98,0,91.47,14.767
			C418.933,303.301,468.479,313.782,472.29,273.765z"/>
		<path fill="#45B39C" d="M453.71,267.73c1.343-17.466-16.198-39.384-36.206-38.43c-15.935,0.759-72.412,11.752-95.916,5.083
			c-23.505-6.67-89.564-1.272-86.707,16.832c2.859,18.103,35.891,25.73,55.264,12.705c19.372-13.022,55.262-6.035,79.082,8.257
			C393.049,286.467,450.853,304.89,453.71,267.73z"/>
		<path fill="#E27C3E" d="M183.112,360.945c-7.354,21.084,0,52.881,33.35,57.644c33.347,4.763,94.327,45.735,94.804,11.434
			c0.477-34.3-11.911-56.692-10.003-75.748c1.904-19.054-60.027-20.961-74.797-5.717
			C211.697,363.804,190.259,340.459,183.112,360.945z"/>
		<path fill="#45B39C" d="M287.446,363.328c-3.352-16.499-30.967-19.058-43.354-5.717c-12.387,13.339-46.211,1.905-47.64,19.532
			c-1.428,17.625,96.71,63.36,105.286,52.88C310.313,419.541,293.639,393.816,287.446,363.328z"/>
		<path fill="#334D5C" d="M274.106,365.232c-10.005-6.193-20.962,6.194-28.108,9.529s-26.679,1.904-25.725,10.957
			c0.952,9.05,49.07,40.493,60.503,30.012c11.433-10.48-3.335-24.773-1.43-32.395C281.252,375.713,281.194,369.62,274.106,365.232z"
			/>
		<path fill="#E27C3E" d="M365.734,349.988c-8.867-6.665-32.077-9.211-33.983,4.126c-1.906,13.34,16.833,20.01,26.36,33.985
			C367.639,402.075,393.255,370.676,365.734,349.988z"/>
		<path fill="#45B39C" d="M347.949,353.481c-3.572,4.382,4.446,13.34,10.481,21.914c6.036,8.578,18.738,5.085,13.34-5.715
			C366.371,358.879,354.937,344.908,347.949,353.481z"/>
		<path fill="#E27C3E" d="M343.503,390.643c-5.261-6.138-11.433-6.669-17.15,0.952c-5.717,7.622,3.175,13.652,5.399,22.546
			c2.223,8.897,17.785,25.093,25.407,19.692c7.623-5.4,18.74-21.276,8.894-28.899C356.206,397.312,347.314,395.088,343.503,390.643z
			"/>
		<path fill="#45B39C" d="M339.692,399.849c-3.018,4.741,0.317,12.07,6.67,19.692c6.351,7.622,9.846,7.308,12.385,1.907
			c2.542-5.4,0.635-12.068-6.987-17.468C344.138,398.58,341.917,396.355,339.692,399.849z"/>
		<path fill="#334D5C" d="M426.891,263.626c1.314-17.601-17.218-23.672-50.797-19.8c-33.579,3.87-119.243-12.92-125.7,6.885
			s39.172-7.317,77.056,1.292S424.737,292.466,426.891,263.626z"/>
		<path fill="#2893C0" d="M220.652,290.09c-3.422-18.245-74.579-7.249-85.974,32.633c-11.394,39.877-18.646,97.362,4.143,121.189
			c22.79,23.827,23.826-2.586,12.432-28.999c-11.395-26.415-17.612-52.313-3.628-75.619
			C161.61,315.989,225.314,314.95,220.652,290.09z"/>
		<path fill="#2893C0" d="M420.051,362.083c-0.903-9.407,18.645-7.249,33.147-10.874c14.503-3.625,39.88-38.842,51.276-30.557
			c11.395,8.284,11.911,35.732-5.18,39.358C482.204,363.635,422.64,389.014,420.051,362.083z"/>
		<path fill="#EFC84A" d="M549.347,449.026c0,4.937,1.432,25.301-27.629,25.301c2.262-14.649,7.979-47.997,7.979-47.997
			l17.389,12.385L549.347,449.026z"/>
		<path fill="#B2902F" d="M534.253,240.87c-0.327-8.91-9.38-9.148-10.986-5.536l-1.588,201.677
			c7.593-8.176,25.345-2.098,27.669,12.014L534.253,240.87z"/>
		<path id="bg_41_" fill="#E27C3E" d="M640,319.998C640,496.724,496.733,640,319.998,640C143.266,640,0,496.724,0,319.998
			C0,143.271,143.266,0,319.998,0C496.733,0,640,143.271,640,319.998z"/>
		<path fill="#1B2C35" d="M568.715,456.504c0,10.898-8.836,19.736-19.738,19.736H91.018c-10.902,0-19.738-8.838-19.738-19.736
			V214.361c0-10.906,8.836-19.741,19.738-19.741h457.959c10.902,0,19.738,8.835,19.738,19.741V456.504z"/>
		<path fill="#334D5C" d="M568.715,425.642c0,10.898-8.836,19.739-19.738,19.739H91.018c-10.902,0-19.738-8.84-19.738-19.739
			V183.499c0-10.905,8.836-19.741,19.738-19.741h457.959c10.902,0,19.738,8.836,19.738,19.741V425.642z"/>
		<path fill="#334D5C" d="M568.715,425.642c0,10.898-8.836,19.739-19.738,19.739H91.018c-10.902,0-19.738-8.84-19.738-19.739
			V183.499c0-10.905,8.836-19.741,19.738-19.741h457.959c10.902,0,19.738,8.836,19.738,19.741V425.642z"/>
		<rect x="95.446" y="181.172" fill="#CACFCF" width="450.592" height="202.688"/>
		<path fill="#B2902F" d="M107.263,412.64c0-11.104,8.997-20.09,20.095-20.09c11.083,0,20.086,8.986,20.086,20.09
			c0,11.098-9.003,20.09-20.086,20.09C116.26,432.729,107.263,423.738,107.263,412.64z"/>
		<path fill="#EFC84A" d="M111.677,412.64c0-8.663,7.021-15.677,15.682-15.677c8.646,0,15.664,7.014,15.664,15.677
			c0,8.659-7.019,15.676-15.664,15.676C118.698,428.315,111.677,421.299,111.677,412.64z"/>
		<path fill="#FFFFFF" d="M118.071,403.711c0-2.327,1.891-4.214,4.218-4.214c2.33,0,4.212,1.887,4.212,4.214
			c0,2.324-1.882,4.212-4.212,4.212C119.962,407.923,118.071,406.035,118.071,403.711z"/>
		<path fill="#1B2C35" d="M498.188,405.682c0,3.242-2.623,5.866-5.862,5.866H209.324c-3.237,0-5.862-2.625-5.862-5.866l0,0
			c0-3.238,2.625-5.863,5.862-5.863h283.002C495.565,399.819,498.188,402.444,498.188,405.682L498.188,405.682z"/>
		<path fill="#1B2C35" d="M498.188,425.938c0,3.237-2.623,5.862-5.862,5.862H209.324c-3.237,0-5.862-2.625-5.862-5.862l0,0
			c0-3.242,2.625-5.862,5.862-5.862h283.002C495.565,420.076,498.188,422.695,498.188,425.938L498.188,425.938z"/>
		<path fill="#718F9E" d="M82.007,331.946c-2.356,0-4.266-1.909-4.266-4.265V210.996c0-2.356,1.909-4.265,4.266-4.265
			c2.349,0,4.266,1.909,4.266,4.265v116.685C86.272,330.037,84.355,331.946,82.007,331.946z"/>
		<path fill="#2E826C" d="M543.057,249.764H521.74v-6.394h21.316V249.764z M500.422,249.764h-21.318v-6.394h21.318V249.764z
			 M457.785,249.764h-21.319v-6.394h21.319V249.764z M415.146,249.764h-21.318v-6.394h21.318V249.764z M372.51,249.764h-21.315
			v-6.394h21.315V249.764z M329.875,249.764h-21.319v-6.394h21.319V249.764z M287.237,249.764h-21.318v-6.394h21.318V249.764z
			 M244.6,249.764h-21.318v-6.394H244.6V249.764z M201.962,249.764h-21.316v-6.394h21.316V249.764z M159.329,249.764h-21.318v-6.394
			h21.318V249.764z M116.69,249.764H95.372v-6.394h21.318V249.764z"/>
		<polygon fill="#A6CB95" points="330.236,266.711 546.038,267.952 546.038,181.172 331.409,181.172 		"/>
		<path fill="#FFFFFF" d="M288.596,346.448c-1.292,0-2.598-0.002-3.908-0.007l-3.945-0.01H95.405v-12.793l189.334,0.015
			c14.047,0.04,26.206,0.105,32.701-6.365c4.355-4.331,6.473-11.846,6.473-22.963V181.213h12.788v123.111
			c0,14.694-3.346,25.171-10.232,32.031C317.035,345.745,303.335,346.448,288.596,346.448z"/>
		<rect x="329.592" y="259.563" fill="#FFFFFF" width="216.497" height="12.79"/>
		<path fill="#2E826C" d="M543.057,324.333H521.74v-6.399h21.316V324.333z M500.422,324.333h-21.318v-6.399h21.318V324.333z
			 M457.785,324.333h-21.319v-6.399h21.319V324.333z M415.146,324.333h-21.318v-6.399h21.318V324.333z M372.51,324.333h-21.315
			v-6.399h21.315V324.333z M329.875,324.333h-21.319v-6.399h21.319V324.333z M287.237,324.333h-21.318v-6.399h21.318V324.333z
			 M244.6,324.333h-21.318v-6.399H244.6V324.333z M201.962,324.333h-21.316v-6.399h21.316V324.333z M159.329,324.333h-21.318v-6.399
			h21.318V324.333z M116.69,324.333H95.372v-6.399h21.318V324.333z"/>
		<path fill="#EFC84A" d="M545,247v-25H284v-42h-17v8H95v13h172v21h-30.652C193.003,222,167,248.735,167,296.152V384h27v-87.848
			C194,247.12,225.807,247,236.348,247H371v54.128C371,335.953,390.098,355,425.381,355H545v-21H425.381
			C401.975,334,392,324.043,392,301.128V247H545z"/>
		<rect x="314.643" y="181.314" fill="#2E826C" width="6.397" height="10.66"/>
		<path fill="#2E826C" d="M321.04,353.125h-6.397v-20.146h6.397V353.125z M321.04,312.837h-6.397v-20.144h6.397V312.837z
			 M321.04,272.549h-6.397v-20.144h6.397V272.549z M321.04,232.258h-6.397v-20.141h6.397V232.258z"/>
		<rect x="314.643" y="373.27" fill="#2E826C" width="6.397" height="10.659"/>
		<rect x="471.749" y="181.314" fill="#2E826C" width="6.398" height="10.66"/>
		<path fill="#2E826C" d="M478.147,353.125h-6.398v-20.146h6.398V353.125z M478.147,312.837h-6.398v-20.144h6.398V312.837z
			 M478.147,272.549h-6.398v-20.144h6.398V272.549z M478.147,232.258h-6.398v-20.141h6.398V232.258z"/>
		<rect x="471.749" y="373.27" fill="#2E826C" width="6.398" height="10.659"/>
		<rect x="157.539" y="181.314" fill="#2E826C" width="6.394" height="10.66"/>
		<path fill="#2E826C" d="M163.933,353.125h-6.394v-20.146h6.394V353.125z M163.933,312.837h-6.394v-20.144h6.394V312.837z
			 M163.933,272.549h-6.394v-20.144h6.394V272.549z M163.933,232.258h-6.394v-20.141h6.394V232.258z"/>
		<rect x="157.539" y="373.27" fill="#2E826C" width="6.394" height="10.659"/>
		<path fill="#A6CB95" d="M285.892,330.933c0-18.835,15.269-34.111,34.106-34.111s34.111,15.276,34.111,34.111
			c0,18.835-15.274,34.111-34.111,34.111S285.892,349.768,285.892,330.933z"/>
		<polygon fill="#E27C3E" points="319.998,300.864 295.906,349.055 319.998,338.12 		"/>
		<polygon fill="#CD5929" points="319.998,300.864 344.097,349.055 319.998,338.12 		"/>
		<polygon fill="#B74821" points="295.906,349.055 344.097,349.055 319.998,338.12 		"/>
	</g>
</g>
<g id="wallet">
</g>
<g id="safe">
</g>
<g id="pencil">
</g>
<g id="satelite">
</g>
<g id="coins">
</g>
<g id="guitar2">
</g>
<g id="tent">
</g>
<g id="boombox">
</g>
<g id="headphonehq">
</g>
<g id="clock">
</g>
<g id="gamepad">
</g>
</svg>
