<?xml version="1.0" encoding="utf-8"?>
<!-- Generator: Adobe Illustrator 16.2.0, SVG Export Plug-In . SVG Version: 6.00 Build 0)  -->
<!DOCTYPE svg PUBLIC "-//W3C//DTD SVG 1.1//EN" "http://www.w3.org/Graphics/SVG/1.1/DTD/svg11.dtd">
<svg version="1.1" id="Layer_1" xmlns="http://www.w3.org/2000/svg" xmlns:xlink="http://www.w3.org/1999/xlink" x="0px" y="0px"
	 width="868.872px" height="249.001px" viewBox="0 0 868.872 249.001" enable-background="new 0 0 868.872 249.001"
	 xml:space="preserve">
<rect x="416.603" fill="#18BC9C" width="452.269" height="249.001"/>
<g>
	<path fill="#FFFFFF" d="M471.48,151.696h66.996v20.569h-87.564V29.923h20.569V151.696z"/>
</g>
<g>
	<path fill="#FFFFFF" d="M564.734,49.474c13.032-13.236,31.358-21.586,51.316-21.586c20.158,0,38.28,8.35,51.517,21.586
		c12.829,13.236,21.179,31.358,21.179,51.52c0,20.158-8.35,38.28-21.179,51.517c-13.236,13.443-31.359,21.586-51.517,21.586
		c-19.958,0-38.284-8.143-51.316-21.586c-12.829-13.236-21.18-31.358-21.18-51.517C543.555,80.832,551.905,62.71,564.734,49.474z
		 M652.906,64.135c-9.568-9.572-22.805-15.476-36.855-15.476c-14.054,0-27.087,5.904-36.452,15.476
		c-9.368,9.365-15.272,22.397-15.272,36.858c0,14.458,5.904,27.491,15.272,36.855c9.365,9.572,22.397,15.479,36.452,15.479
		c14.05,0,27.287-5.907,36.855-15.479c9.165-9.365,15.072-22.194,15.072-36.855C667.978,86.329,662.07,73.5,652.906,64.135z"/>
</g>
<g>
	<path fill="#FFFFFF" d="M699.933,80.832c7.536-37.876,40.523-51.927,67.813-51.927c39.302,0,70.049,30.137,70.049,72.292
		c0,41.948-30.137,72.085-70.049,72.085c-25.862,0-55.188-17.511-64.96-44.798v0.203c-1.835-4.686-2.854-12.625-3.872-24.64h76.771
		v20.565h-52.742c8.554,20.772,27.287,28.919,44.802,28.919c27.898,0,49.481-22.197,49.481-52.334
		c0-29.937-21.583-51.724-49.481-51.724c-18.125,0-40.116,8.347-45.82,31.358H699.933z"/>
</g>
<g>
	<path fill="#18BC9C" d="M48.161,51.506C61.193,38.27,79.52,29.923,99.477,29.923c20.158,0,38.28,8.347,51.517,21.583
		c12.829,13.236,21.18,31.362,21.18,51.523c0,20.158-8.351,38.28-21.18,51.517c-13.236,13.443-31.358,21.587-51.517,21.587
		c-19.958,0-38.284-8.144-51.316-21.587c-12.829-13.236-21.179-31.358-21.179-51.517C26.981,82.868,35.332,64.742,48.161,51.506z
		 M136.333,66.171c-9.568-9.572-22.805-15.479-36.855-15.479c-14.054,0-27.086,5.907-36.451,15.479
		c-9.368,9.365-15.272,22.401-15.272,36.858c0,14.458,5.904,27.487,15.272,36.859c9.365,9.568,22.397,15.472,36.451,15.472
		c14.051,0,27.287-5.904,36.855-15.472c9.165-9.372,15.072-22.201,15.072-36.859C151.404,88.365,145.497,75.536,136.333,66.171z"/>
</g>
<g>
	<path fill="#18BC9C" d="M184.989,174.3V31.552l15.883,0.204l69.442,100.393V31.755h20.362V174.3h-16.29l-68.828-99.579V174.3
		H184.989z"/>
</g>
<g>
	<path fill="#18BC9C" d="M370.086,113.416h-64.553V92.644h64.553V52.527h-65.978V31.959h86.75V174.3h-86.954v-20.568h66.182V113.416
		z"/>
</g>
<g>
	<rect x="26.981" y="193.624" fill="#18BC9C" width="363.876" height="21.2"/>
</g>
<g>
	<rect x="450.911" y="193.644" fill="#FFFFFF" width="386.885" height="21.2"/>
</g>
</svg>
