<?xml version="1.0" encoding="utf-8"?>
<!-- Generator: Adobe Illustrator 16.2.0, SVG Export Plug-In . SVG Version: 6.00 Build 0)  -->
<!DOCTYPE svg PUBLIC "-//W3C//DTD SVG 1.1//EN" "http://www.w3.org/Graphics/SVG/1.1/DTD/svg11.dtd">
<svg version="1.1" id="Layer_1" xmlns="http://www.w3.org/2000/svg" xmlns:xlink="http://www.w3.org/1999/xlink" x="0px" y="0px"
	 width="595.276px" height="595.28px" viewBox="0 0 595.276 595.28" enable-background="new 0 0 595.276 595.28"
	 xml:space="preserve">
<rect x="297.639" fill="#18BC9C" width="297.638" height="595.28"/>
<g>
	<path fill="#18BC9C" d="M63.141,182.748c21.969-22.313,52.861-36.383,86.504-36.383c33.982,0,64.529,14.07,86.842,36.383
		c21.627,22.313,35.703,52.868,35.703,86.854c0,33.982-14.076,64.53-35.703,86.842c-22.313,22.662-52.859,36.39-86.842,36.39
		c-33.643,0-64.535-13.728-86.504-36.39c-21.629-22.313-35.703-52.86-35.703-86.842C27.438,235.616,41.512,205.061,63.141,182.748z
		 M211.773,207.469c-16.129-16.135-38.443-26.093-62.129-26.093c-23.691,0-45.66,9.958-61.445,26.093
		c-15.795,15.786-25.746,37.762-25.746,62.133c0,24.373,9.951,46.336,25.746,62.133c15.785,16.131,37.754,26.082,61.445,26.082
		c23.686,0,46-9.951,62.129-26.082c15.447-15.797,25.406-37.424,25.406-62.133C237.18,244.882,227.221,223.255,211.773,207.469z"/>
</g>
<g>
	<rect x="27.438" y="451.318" fill="#18BC9C" width="244.752" height="35.738"/>
</g>
<g>
	<path fill="#FFFFFF" d="M365.494,358.159h196.6v34.672H330.82V152.883h34.674V358.159z"/>
</g>
<g>
	<rect x="330.82" y="450.87" fill="#FFFFFF" width="231.273" height="35.739"/>
</g>
</svg>
