<?xml version="1.0" encoding="utf-8"?>
<!-- Generator: Adobe Illustrator 16.2.0, SVG Export Plug-In . SVG Version: 6.00 Build 0)  -->
<!DOCTYPE svg PUBLIC "-//W3C//DTD SVG 1.1//EN" "http://www.w3.org/Graphics/SVG/1.1/DTD/svg11.dtd">
<svg version="1.1" id="Layer_1" xmlns="http://www.w3.org/2000/svg" xmlns:xlink="http://www.w3.org/1999/xlink" x="0px" y="0px"
	 width="200.164px" height="253.87px" viewBox="0 0 200.164 253.87" enable-background="new 0 0 200.164 253.87"
	 xml:space="preserve">
<rect y="-0.13" fill="#FFFFFF" width="200.164" height="189.414"/>
<rect y="189.284" fill-rule="evenodd" clip-rule="evenodd" fill="#2C3E50" width="200.164" height="64.586"/>
<path fill="#2C3E50" d="M197.164,2.87v184.04H3V2.87H197.164 M200.164-0.13H0v190.04h200.164V-0.13L200.164-0.13z"/>
<g>
	<path fill="#FFFFFF" d="M40.394,231.141c-2.892,3.37-6.869,5.056-11.933,5.056c-5.064,0-9.042-1.686-11.933-5.056
		c-2.892-3.37-4.337-8.101-4.337-14.19s1.445-10.82,4.337-14.191c2.891-3.369,6.869-5.055,11.933-5.055
		c5.063,0,9.041,1.686,11.933,5.055c2.891,3.371,4.337,8.102,4.337,14.191S43.285,227.771,40.394,231.141z M37.417,205.146
		c-2.07-2.669-5.055-4.003-8.956-4.003s-6.886,1.334-8.956,4.003c-2.07,2.669-3.105,6.604-3.105,11.805s1.035,9.135,3.105,11.804
		c2.07,2.669,5.056,4.003,8.956,4.003s6.885-1.334,8.956-4.003c2.07-2.669,3.105-6.603,3.105-11.804S39.487,207.814,37.417,205.146z
		"/>
	<path fill="#FFFFFF" d="M54.328,208.995l0.051,4.003h0.103c2.464-3.011,5.406-4.517,8.828-4.517c3.113,0,5.371,0.873,6.775,2.617
		c1.402,1.745,2.104,4.637,2.104,8.674v15.91h-3.849v-15.396c0-3.388-0.462-5.688-1.386-6.903c-0.924-1.214-2.481-1.822-4.67-1.822
		c-1.779,0-3.508,0.83-5.184,2.489c-1.677,1.66-2.515,3.362-2.515,5.106v16.526h-3.952v-26.688H54.328z"/>
	<path fill="#FFFFFF" d="M81.785,223.365c0.205,6.569,3.301,9.854,9.289,9.854c2.327,0,4.858-0.564,7.596-1.693v3.388
		c-2.806,0.854-5.458,1.283-7.955,1.283c-4.208,0-7.408-1.155-9.598-3.465c-2.19-2.31-3.285-5.773-3.285-10.393
		c0-4.756,1.052-8.254,3.157-10.496c2.104-2.24,4.986-3.361,8.647-3.361c7.186,0,10.778,4.5,10.778,13.498
		c0,0.308-0.034,0.77-0.103,1.386H81.785z M81.785,220.337h14.781c-0.103-5.919-2.412-8.879-6.929-8.879
		C84.744,211.458,82.126,214.418,81.785,220.337z"/>
	<path fill="#FFFFFF" d="M111.397,198.217v33.976h18.117v3.49h-22.428v-37.466H111.397z"/>
	<path fill="#FFFFFF" d="M137.879,212.125c2.156-2.429,5.149-3.644,8.981-3.644c3.832,0,6.826,1.215,8.981,3.644
		c2.156,2.431,3.233,5.834,3.233,10.214s-1.078,7.784-3.233,10.213c-2.155,2.43-5.15,3.645-8.981,3.645
		c-3.832,0-6.826-1.215-8.981-3.645c-2.155-2.429-3.233-5.833-3.233-10.213S135.724,214.556,137.879,212.125z M138.649,222.339
		c0,7.185,2.737,10.777,8.211,10.777c5.474,0,8.212-3.593,8.212-10.777c0-7.186-2.738-10.778-8.212-10.778
		C141.386,211.561,138.649,215.153,138.649,222.339z"/>
	<path fill="#FFFFFF" d="M186.174,208.995v25.147c0,4.619-0.993,7.998-2.977,10.137c-1.985,2.138-5.099,3.208-9.341,3.208
		c-2.703,0-5.201-0.377-7.493-1.13v-3.438c2.395,0.992,4.893,1.488,7.493,1.488c2.977,0,5.124-0.787,6.441-2.36
		c1.317-1.574,1.976-4.157,1.976-7.75v-2.566h-0.103c-2.087,2.636-4.876,3.952-8.366,3.952c-3.114,0-5.62-1.206-7.519-3.618
		s-2.848-5.773-2.848-10.085c0-4.55,0.949-7.938,2.848-10.162c1.899-2.224,4.405-3.336,7.519-3.336c3.456,0,6.295,1.438,8.52,4.312
		h0.103l0.051-3.798H186.174z M167.39,221.979c0,3.456,0.659,6.091,1.976,7.903c1.317,1.814,3.139,2.721,5.466,2.721
		c1.984,0,3.721-0.735,5.209-2.207c1.488-1.471,2.232-3.233,2.232-5.286v-5.954c0-2.053-0.744-3.831-2.232-5.337
		s-3.226-2.259-5.209-2.259C169.87,211.561,167.39,215.034,167.39,221.979z"/>
</g>
<g>
	<path fill-rule="evenodd" clip-rule="evenodd" fill="#2C3E50" d="M51.99,128.364c-2.988,0.406-4.71-1.189-5.645-3.359
		c-2.019-4.692-3.765-9.503-5.547-14.293c-0.156-0.42,0.242-1.047,0.383-1.576c0.506,0.245,1.248,0.354,1.482,0.756
		c1.616,2.778,3.07,5.65,4.699,8.421c0.582,0.99,1.502,1.781,2.268,2.662c0.461-1.058,1.149-2.077,1.33-3.181
		c0.283-1.726,0.353-3.517,0.243-5.263c-0.043-0.68-0.667-1.58-1.281-1.927c-2.953-1.667-4.124-4.116-3.864-7.445
		c0.179-2.304-0.543-4.239-2.873-5.24c-3.423-1.468-4.968-0.938-6.764,2.341c-3.971,7.252-2.958,15.854,2.839,22.942
		c1.492,1.823,3.335,3.354,4.947,5.086c0.471,0.506,0.699,1.236,1.038,1.863c-0.615,0.21-1.219,0.552-1.847,0.604
		c-2.85,0.239-5.202-0.916-7.341-2.702c-9.858-8.233-12.567-20.614-7.179-33.142c0.784-1.822,1.622-3.65,2.678-5.323
		c2.6-4.12,5.486-5.181,10.195-3.804c1.678,0.489,3.271,1.271,4.899,1.928c0.967,0.392,1.925,0.803,2.699,1.125
		c1.684-7.761,3.325-15.326,5.01-23.098c-3.018-0.898-7.086-0.777-9.553-4.535c2.569-0.319,4.799-0.596,7.637-0.947
		c-0.81-0.876-1.195-1.367-1.654-1.777c-5.269-4.702-7.41-10.564-6.381-17.529c0.402-2.723,1.067-2.913,3.488-1.595
		c2.754,1.5,5.558,2.91,8.353,4.333c0.386,0.197,0.848,0.245,2.028,0.569c-0.939-1.252-1.467-1.989-2.029-2.7
		c-3.844-4.859-6.438-10.252-6.471-16.547c-0.009-1.765,0.616-3.621,1.315-5.282c0.954-2.266,1.514-2.178,3.619-0.924
		c5.042,3.005,9.971,6.342,15.339,8.613c3.838,1.624,8.306,2.345,12.509,2.413c13.108,0.213,24.551,4.609,34.697,12.662
		c2.629,2.086,1.836,5.273,1.96,8.099c0.028,0.652-0.194,1.316-0.317,2.07c3.255,0.566,6.334,1.067,9.396,1.651
		c1.2,0.229,2.367,0.638,3.544,0.979c2.549,0.738,3.972,2.422,4.317,5.066c1.148,8.793,2.319,17.583,3.486,26.374
		c0.088,0.663,0.206,1.322,0.365,2.327c0.964-0.399,1.682-0.737,2.427-0.998c2.581-0.908,5.132-1.932,7.769-2.639
		c2.584-0.692,4.873,0.215,6.582,2.234c5.611,6.634,10.734,22.411,2.777,33.737c-1.991,2.834-4.528,5.416-7.254,7.555
		c-1.524,1.196-3.935,1.317-5.981,1.755c-0.517,0.109-1.171-0.424-1.761-0.662c0.313-0.563,0.492-1.296,0.959-1.66
		c3.774-2.935,6.568-6.619,8.507-10.957c2.77-6.2,2.249-12.217-1.128-18.047c-0.817-1.413-1.795-2.5-3.658-2.093
		c-2.185,0.479-4.492,0.796-5.178,3.458c-0.227,0.879-0.383,1.831-0.301,2.727c0.289,3.2-1.035,5.505-3.762,7.021
		c-1.174,0.652-1.574,1.478-1.408,2.79c0.259,2.043,0.33,4.11,0.594,6.152c0.068,0.528,0.561,1.002,0.857,1.501
		c0.521-0.354,1.252-0.587,1.53-1.078c1.625-2.863,3.138-5.789,4.704-8.686c0.291-0.539,0.572-1.126,1.01-1.525
		c0.336-0.307,0.91-0.353,1.379-0.514c0.152,0.456,0.553,1.009,0.42,1.356c-1.971,5.122-3.857,10.288-6.125,15.278
		c-0.779,1.715-2.411,3.258-4.945,2.362c-0.163,2.864-0.146,5.543-0.495,8.174c-1.071,8.051-5.799,14.092-11.399,19.447
		c-16.162,15.455-38.38,17.286-56.816,4.636c-6.995-4.801-12.688-10.971-15.659-19.051c-1.183-3.218-1.167-6.882-1.646-10.351
		C51.895,130.179,51.99,129.341,51.99,128.364z M106.818,122.911c-0.738-0.395-1.107-0.741-1.51-0.784
		c-2.382-0.257-3.434-1.768-3.82-3.926c-0.524-2.93-1.16-5.848-1.487-8.8c-0.211-1.909-0.904-2.77-2.871-2.621
		c-1.525,0.114-3.069,0.114-4.596,0.021c-1.864-0.112-2.483,0.695-2.704,2.518c-0.382,3.174-1.135,6.3-1.683,9.456
		c-0.333,1.922-1.463,2.988-3.337,3.263c-3.098,0.455-6.215,0.794-9.301,1.317c-0.965,0.164-2.244,0.509-2.716,1.215
		c-2.209,3.301-4.324,6.682-6.211,10.176c-2.287,4.235-1.88,8.417,1.024,12.285c1.194,1.591,2.352,3.239,3.742,4.649
		c6.491,6.584,13.958,11.216,23.59,11.185c11.196-0.037,20.477-4.563,28.227-12.395c3.246-3.281,6.602-6.869,6.482-11.776
		c-0.111-4.533-1.174-9.056-1.997-13.55c-0.26-1.419-1.274-2.27-3.033-2.141c-3.278,0.238-6.573,0.311-9.862,0.308
		c-2.107-0.002-4.215-0.263-6.461-0.417c0.161,0.411,0.234,0.618,0.322,0.82c0.516,1.193,1.035,2.385,1.555,3.576
		c-1.428,0.407-2.853,0.829-4.287,1.21c-0.284,0.075-0.641,0.075-0.912-0.027c-2.161-0.819-4.016-0.002-5.859,1.01
		c-0.477,0.262-1.03,0.384-2.144,0.784C99.473,126.277,103.175,124.976,106.818,122.911z M94.918,81.176
		c-1.805-2.096-3.58-4.268-5.477-6.328c-2.879-3.13-6.529-3.874-10.518-2.908c-5.399,1.307-10.373,3.592-15.066,6.604
		c-5.226,3.352-6.956,8.049-6.159,13.986c0.205,1.531,0.737,2.275,2.451,2.209c3.58-0.141,7.17-0.174,10.751-0.078
		c4.741,0.126,9.486,0.31,14.212,0.682c2.356,0.186,5.139,0.117,5.284,3.423c3.184,0,6.072,0,9.226,0
		c-0.121-2.729,1.857-3.081,3.974-3.264c2.666-0.23,5.327-0.618,7.996-0.68c6.111-0.14,12.227-0.093,18.339-0.211
		c0.658-0.013,1.818-0.543,1.878-0.958c0.589-4.111,1.188-8.346-2.083-11.725c-5.471-5.655-12.406-8.538-19.959-10.127
		c-3.885-0.816-7.107,0.51-9.713,3.379C98.269,77.146,96.595,79.211,94.918,81.176z M119.392,99.468
		c-4.049,0.54-8.221,1.032-12.367,1.679c-1.895,0.295-3.019,1.529-2.849,3.55c0.32,3.804,0.683,7.604,1.102,11.396
		c0.25,2.256,1.655,3.434,3.823,4.003c6.219,1.635,12.287,1.093,18.297-0.986c2.088-0.722,3.378-2.277,3.827-4.265
		c0.805-3.562,1.29-7.196,1.909-10.8c0.327-1.91-0.633-2.92-2.4-3.163C127.029,100.369,123.312,99.95,119.392,99.468z
		 M70.266,99.463c-3.815,0.491-7.619,0.869-11.367,1.55c-0.83,0.151-2.055,1.348-2.09,2.11c-0.207,4.472,0.316,8.906,2.373,12.956
		c0.578,1.137,1.689,2.335,2.84,2.794c6.223,2.476,12.626,2.907,19.136,1.095c1.807-0.504,3.011-1.544,3.24-3.429
		c0.47-3.863,0.904-7.73,1.255-11.605c0.196-2.164-0.892-3.547-3.058-3.857C78.514,100.494,74.42,100.002,70.266,99.463z"/>
	<path fill-rule="evenodd" clip-rule="evenodd" fill="#2C3E50" d="M86.631,150.883c3.164-0.292,6.341-0.489,9.49-0.9
		c3.393-0.444,6.764-1.063,10.136-1.653c3.216-0.563,5.302-2.58,6.64-5.434c1.027-2.193,1.953-4.435,2.959-6.73
		c-1.108-0.442-1.917-0.764-2.813-1.121c3.604-2.474,9.572-2.691,12.226-0.304c-0.846,0.37-1.555,0.916-2.291,0.955
		c-2.143,0.114-3.217,1.294-3.971,3.157c-0.541,1.333-1.383,2.55-2.127,3.795c-2.736,4.574-6.376,7.747-12.026,8.022
		c-6.057,0.294-12.108,0.722-18.161,1.092C86.671,151.469,86.651,151.176,86.631,150.883z"/>
	<path fill-rule="evenodd" clip-rule="evenodd" fill="#2C3E50" d="M94.148,129.999c-2.704-1.355-5.309-2.462-8.357-1.517
		c-0.612,0.189-1.462,0.125-2.026-0.164c-0.894-0.459-2.193-1.108-2.327-1.854c-0.25-1.397,2.028-3.483,3.28-3.133
		C88.605,124.421,91.929,126.431,94.148,129.999z"/>
</g>
</svg>
